<?xml version="1.0" encoding="UTF-8" standalone="no"?>
<!DOCTYPE svg PUBLIC "-//W3C//DTD SVG 1.1//EN" "http://www.w3.org/Graphics/SVG/1.1/DTD/svg11.dtd">
<svg xmlns="http://www.w3.org/2000/svg" version="1.1" viewBox="0 0 482 492">
<path fill="#000000" d="
  M 187.51 50.91
  C 257.88 46.85 353.30 50.72 372.45 138.03
  C 375.81 153.34 376.96 167.36 376.96 184.06
  Q 376.97 236.65 377.32 289.25
  C 377.37 296.92 379.49 304.44 388.77 303.48
  Q 393.35 303.01 395.62 299.22
  C 399.88 292.11 394.10 273.99 400.91 269.98
  C 405.11 267.51 422.85 268.69 424.66 268.84
  Q 430.11 269.31 430.49 275.16
  C 432.31 303.53 419.12 336.34 385.53 336.00
  C 380.02 335.95 373.89 336.47 368.85 335.25
  C 346.62 329.83 338.98 310.17 335.01 289.86
  Q 332.15 275.18 329.28 260.50
  C 328.58 256.90 324.58 247.48 320.16 245.84
  C 314.69 243.81 313.75 249.48 313.75 253.52
  Q 313.76 287.76 313.73 321.99
  C 313.72 330.13 308.65 336.08 300.44 336.04
  Q 277.06 335.93 253.75 336.04
  Q 246.62 336.08 243.44 334.65
  Q 236.34 331.47 236.06 322.55
  Q 235.87 316.46 236.01 284.14
  C 236.07 270.50 229.59 266.51 216.83 266.51
  Q 186.40 266.50 155.97 266.49
  Q 148.10 266.49 144.73 267.97
  C 137.04 271.34 136.01 278.00 136.02 286.33
  Q 136.03 302.01 135.96 317.71
  C 135.91 328.52 133.29 336.07 121.40 336.03
  Q 97.25 335.95 73.14 336.02
  C 62.79 336.05 58.50 330.62 58.50 320.66
  Q 58.50 246.34 58.48 172.00
  C 58.48 123.40 81.24 83.23 126.05 64.56
  Q 154.18 52.84 187.51 50.91
  Z"
/>
<rect fill="#000000" x="-2.11" y="-35.42" transform="translate(118.14,385.15) rotate(0.1)" width="4.22" height="70.84" rx="1.33"/>
<path fill="#000000" d="
  M 250.40 379.90
  Q 255.32 374.15 262.33 372.58
  C 271.72 370.47 281.66 374.47 284.95 383.94
  Q 286.20 387.56 286.24 396.29
  Q 286.29 407.77 286.21 419.22
  A 1.02 1.02 0.0 0 1 285.62 420.13
  Q 281.87 421.85 282.06 418.53
  C 282.42 412.36 281.96 405.85 282.25 398.50
  C 282.69 387.26 280.10 375.28 266.16 375.94
  C 253.18 376.56 249.43 385.71 249.00 397.28
  Q 248.59 408.32 248.77 419.41
  A 1.01 1.00 73.6 0 1 248.30 420.28
  C 245.78 421.83 244.73 419.91 244.74 417.66
  Q 244.83 386.33 244.93 355.00
  Q 244.94 352.83 245.07 350.67
  A 1.00 1.00 0.0 0 1 246.20 349.73
  L 247.89 349.96
  A 1.00 1.00 0.0 0 1 248.76 350.94
  L 248.99 379.39
  Q 249.01 381.52 250.40 379.90
  Z"
/>
<path fill="#000000" d="
  M 413.29 378.04
  A 1.00 1.00 0.0 0 0 412.31 377.04
  L 406.89 376.93
  A 1.00 1.00 0.0 0 1 405.91 376.00
  L 405.84 374.83
  A 1.00 0.99 -2.5 0 1 406.82 373.77
  L 412.27 373.68
  A 1.01 1.00 -0.6 0 0 413.26 372.68
  L 413.25 359.75
  A 1.00 0.99 87.1 0 1 414.14 358.76
  L 416.13 358.55
  A 1.00 1.00 0.0 0 1 417.24 359.54
  L 417.29 372.71
  A 1.00 1.00 0.0 0 0 418.28 373.71
  Q 424.08 373.78 429.29 373.73
  C 430.74 373.72 432.39 374.16 431.45 376.00
  A 1.01 1.00 -77.4 0 1 430.59 376.55
  L 418.36 376.84
  A 0.99 0.99 0.0 0 0 417.39 377.81
  Q 417.03 390.85 417.45 403.25
  Q 417.68 409.93 417.98 411.25
  C 419.74 419.05 425.22 417.56 431.24 417.30
  A 1.00 0.99 81.0 0 1 432.25 418.04
  C 433.19 421.53 427.53 420.89 425.61 420.97
  C 418.65 421.26 414.41 416.70 413.45 409.82
  Q 413.10 407.26 413.13 403.25
  L 413.29 378.04
  Z"
/>
<path fill="#000000" d="
  M 64.76 397.79
  A 1.01 1.00 -3.5 0 0 63.79 398.88
  C 65.41 416.57 86.51 426.54 98.69 411.47
  C 100.13 409.68 101.63 408.72 103.80 409.56
  A 1.00 1.00 0.0 0 1 104.26 411.06
  Q 96.27 422.68 82.75 422.26
  C 54.74 421.39 50.92 380.09 76.68 372.66
  C 92.58 368.07 104.75 380.86 106.11 396.30
  A 1.01 1.01 0.0 0 1 105.44 397.34
  Q 103.84 397.89 101.06 397.80
  Q 82.76 397.18 64.76 397.79
  Z
  M 65.06 394.23
  L 99.98 394.36
  A 1.00 1.00 0.0 0 0 100.98 393.29
  C 100.36 384.89 94.05 377.63 85.83 375.93
  C 74.79 373.65 65.50 382.47 64.07 393.10
  A 1.00 1.00 0.0 0 0 65.06 394.23
  Z"
/>
<path fill="#000000" d="
  M 135.53 397.80
  A 1.00 1.00 0.0 0 0 134.58 398.98
  Q 137.98 416.96 154.02 418.46
  C 160.60 419.08 165.91 416.42 169.79 411.31
  Q 171.68 408.82 174.77 409.60
  A 1.00 1.00 0.0 0 1 175.34 411.15
  Q 166.43 423.66 152.60 422.15
  C 126.66 419.33 122.25 382.47 145.21 373.48
  C 160.63 367.44 175.07 378.50 176.76 393.99
  C 177.29 398.83 174.39 397.64 171.42 397.58
  Q 152.96 397.20 135.53 397.80
  Z
  M 171.02 394.26
  A 1.00 1.00 0.0 0 0 172.02 393.20
  Q 171.84 390.24 170.58 387.45
  C 162.13 368.84 138.29 373.57 135.14 393.08
  A 1.00 1.00 0.0 0 0 136.13 394.24
  L 171.02 394.26
  Z"
/>
<path fill="#000000" d="
  M 340.28 380.22
  L 340.24 375.04
  A 0.99 0.97 74.2 0 1 340.71 374.18
  Q 342.16 373.29 343.66 373.95
  A 1.01 1.01 0.0 0 1 344.25 374.87
  L 344.25 419.25
  A 1.00 1.00 0.0 0 1 343.90 420.01
  Q 342.36 421.31 340.73 420.31
  A 1.03 1.01 -74.9 0 1 340.25 419.46
  L 340.24 413.32
  Q 340.23 411.13 338.83 412.80
  Q 330.39 422.82 318.14 422.16
  C 286.07 420.43 288.40 370.73 320.48 371.95
  Q 330.92 372.35 338.53 380.90
  Q 340.30 382.88 340.28 380.22
  Z
  M 320.1973 418.4892
  A 21.46 20.62 89.5 0 0 340.6292 396.8501
  A 21.46 20.62 89.5 0 0 319.8227 375.5708
  A 21.46 20.62 89.5 0 0 299.3908 397.2099
  A 21.46 20.62 89.5 0 0 320.1973 418.4892
  Z"
/>
<path fill="#000000" d="
  M 190.51 413.30
  L 190.49 442.55
  A 1.00 1.00 0.0 0 1 190.00 443.41
  Q 188.59 444.23 187.06 443.49
  A 1.01 1.00 13.4 0 1 186.50 442.59
  L 186.50 374.81
  A 1.00 1.00 0.0 0 1 187.50 373.81
  L 189.45 373.81
  A 1.00 1.00 0.0 0 1 190.45 374.78
  L 190.62 380.50
  Q 190.70 383.22 192.40 381.10
  Q 193.39 379.87 194.48 378.68
  Q 195.94 377.09 197.62 376.03
  C 212.94 366.43 232.84 374.66 235.30 392.97
  C 237.20 407.05 229.52 419.49 215.48 421.85
  C 206.55 423.35 197.28 420.28 191.97 412.83
  Q 190.52 410.81 190.51 413.30
  Z
  M 210.4332 418.5374
  A 21.44 20.59 90.9 0 0 231.3575 397.4234
  A 21.44 20.59 90.9 0 0 211.1068 375.6626
  A 21.44 20.59 90.9 0 0 190.1825 396.7766
  A 21.44 20.59 90.9 0 0 210.4332 418.5374
  Z"
/>
<path fill="#000000" d="
  M 358.40 420.59
  A 0.99 0.98 76.0 0 1 357.41 419.99
  Q 356.82 418.66 356.84 416.25
  Q 356.96 397.38 357.28 378.52
  C 357.32 376.29 355.84 372.67 360.47 373.86
  A 1.01 1.00 88.9 0 1 361.19 374.56
  C 361.46 375.57 361.10 380.84 361.94 380.76
  A 1.01 1.01 0.0 0 0 362.65 380.37
  C 370.37 370.17 385.55 368.91 394.21 378.55
  C 400.39 385.44 398.57 405.38 398.17 419.36
  A 0.99 0.99 0.0 0 1 397.23 420.33
  L 395.55 420.42
  A 0.99 0.99 0.0 0 1 394.49 419.43
  Q 394.51 406.56 394.50 393.76
  C 394.49 390.93 393.54 386.27 392.19 383.61
  C 386.21 371.79 367.94 374.25 363.21 385.25
  Q 361.53 389.15 361.38 398.01
  Q 361.20 408.71 361.31 419.43
  A 0.99 0.99 0.0 0 1 360.39 420.43
  L 358.40 420.59
  Z"
/>
</svg>
