<?xml version="1.0" encoding="UTF-8" standalone="no"?>
<!DOCTYPE svg PUBLIC "-//W3C//DTD SVG 1.1//EN" "http://www.w3.org/Graphics/SVG/1.1/DTD/svg11.dtd">
<svg xmlns="http://www.w3.org/2000/svg" version="1.1" viewBox="0 0 1156 1186">
<g stroke-width="2.00" fill="none" stroke-linecap="butt">
<path stroke="#131c2e" vector-effect="non-scaling-stroke" d="
  M 513.41 828.72
  Q 514.44 828.18 515.23 828.66
  A 1.01 0.98 -75.5 0 1 515.71 829.50
  Q 515.80 835.34 515.81 841.19
  Q 515.97 924.88 516.02 1008.63
  Q 516.03 1010.53 517.59 1009.45
  Q 520.57 1007.40 525.45 1003.20
  Q 812.56 756.28 1099.25 509.85
  A 1.00 1.00 0.0 0 0 1099.25 508.33
  L 517.39 8.13
  Q 516.14 7.05 516.07 8.70
  Q 515.72 16.91 515.82 25.10
  C 516.49 79.65 516.50 134.46 515.50 188.99
  C 515.48 190.20 514.52 191.27 513.44 190.07"
/>
<path stroke="#3635b6" vector-effect="non-scaling-stroke" d="
  M 474.81 286.88
  Q 466.70 284.57 459.01 281.31
  C 450.19 277.56 441.12 278.48 430.51 279.38
  Q 428.80 279.53 429.00 278.45"
/>
<path stroke="#0d01b1" vector-effect="non-scaling-stroke" d="
  M 540.75 319.04
  Q 538.42 322.43 535.81 325.61
  C 532.27 329.94 525.63 329.49 521.00 330.00
  C 517.71 330.35 514.72 327.67 510.89 327.72
  A 1.01 1.00 64.5 0 1 510.25 327.49
  C 507.18 324.99 502.00 322.02 498.84 318.56
  Q 497.21 316.77 495.23 315.48
  Q 491.42 312.99 488.39 309.51
  A 1.09 1.08 -11.6 0 0 487.93 309.21
  C 486.28 308.71 483.18 304.92 481.53 303.64
  C 476.98 300.11 474.27 296.93 467.93 294.58
  Q 462.83 292.70 451.56 286.49
  C 448.76 284.95 447.08 281.76 443.07 282.12
  Q 437.40 282.63 434.71 282.38
  Q 434.45 282.36 434.24 282.22
  Q 432.64 281.13 430.73 281.75
  Q 430.25 281.90 429.17 282.64
  C 422.69 287.05 418.02 284.04 411.26 284.80
  C 404.90 285.52 398.71 284.59 392.28 285.09
  C 383.07 285.81 375.37 284.10 364.60 284.44
  A 1.06 1.00 57.5 0 1 364.05 284.30
  Q 360.13 281.91 355.46 280.96"
/>
<path stroke="#0f00c2" vector-effect="non-scaling-stroke" d="
  M 542.25 318.29
  Q 542.06 318.97 541.55 319.38
  A 0.65 0.65 0.0 0 0 541.49 320.32
  L 541.72 320.57
  A 1.01 0.99 33.1 0 1 541.94 321.57
  C 541.12 324.01 541.12 326.07 539.75 328.38
  C 538.17 331.03 537.44 333.95 536.01 336.54
  Q 534.08 340.02 532.71 343.76
  C 530.09 350.87 524.71 352.08 518.92 354.44
  A 0.96 0.96 0.0 0 1 518.25 354.47
  Q 517.34 354.19 516.66 354.73
  A 1.00 1.00 0.0 0 0 516.61 356.27
  Q 518.24 357.71 518.44 359.58
  Q 519.17 366.71 520.24 370.68
  A 1.02 1.01 -41.9 0 1 520.20 371.33
  L 517.23 378.39
  A 1.01 0.95 -7.6 0 1 516.87 378.83
  Q 510.63 383.02 509.83 390.66
  A 1.01 0.99 -58.5 0 0 509.97 391.27
  Q 514.35 398.70 506.34 400.12
  Q 502.51 400.80 504.83 404.05
  C 506.84 406.88 513.76 410.51 510.48 414.00
  Q 507.85 416.81 504.55 418.82
  A 1.07 1.04 85.6 0 0 504.13 419.32
  C 502.63 423.20 499.35 424.33 495.46 424.52
  C 490.78 424.75 486.32 420.53 481.62 423.01
  C 477.10 425.39 477.07 431.61 479.63 435.51
  Q 479.78 435.73 479.80 435.99
  Q 479.97 438.59 480.54 441.12
  C 481.63 445.96 481.43 450.73 481.56 455.54
  A 0.21 0.18 8.2 0 0 481.72 455.72
  L 481.97 455.77
  A 0.26 0.26 0.0 0 1 482.18 455.98
  C 482.74 459.31 483.40 464.83 485.13 467.77
  A 0.89 0.86 -61.4 0 1 485.27 468.28
  C 485.24 471.79 487.30 474.15 488.12 476.91
  C 489.80 482.58 492.30 487.40 494.50 493.35
  Q 496.66 499.20 500.61 504.08
  C 501.85 505.62 504.40 507.06 505.29 509.61
  C 506.38 512.76 509.60 523.42 514.09 521.62
  Q 521.73 518.55 524.11 509.43
  C 525.57 503.82 527.35 496.05 525.85 490.38
  Q 524.83 486.50 525.98 482.53
  A 1.08 1.02 46.8 0 0 525.98 481.96
  C 524.69 477.64 525.93 474.63 526.04 470.40
  C 526.15 466.44 528.41 464.90 526.84 460.48
  A 1.00 1.00 0.0 0 1 526.99 459.54
  L 527.97 458.26
  A 1.00 0.99 40.9 0 0 527.87 456.94
  C 526.08 455.20 526.66 453.99 527.47 451.46
  Q 527.94 449.97 527.65 447.81
  C 527.14 443.93 528.33 437.04 526.19 432.33
  Q 523.98 427.45 519.86 423.84
  A 0.96 0.93 -74.5 0 1 519.54 423.25
  Q 519.10 420.67 520.81 419.16
  Q 521.88 418.22 520.51 417.80
  Q 517.69 416.94 515.71 414.94
  Q 513.44 412.66 513.59 409.41
  Q 513.75 406.06 515.79 403.28
  A 0.96 0.96 0.0 0 0 515.98 402.65
  C 515.94 401.25 516.61 392.30 518.76 395.24
  A 1.02 1.01 -64.1 0 1 518.95 395.80
  Q 519.04 399.07 521.06 401.81
  A 1.00 1.00 0.0 0 0 522.59 401.90
  Q 526.95 397.27 523.41 392.40
  A 0.99 0.97 -62.9 0 1 523.22 391.79
  L 523.35 386.26
  A 1.03 1.02 65.6 0 1 523.58 385.64
  Q 526.69 381.95 527.69 377.24
  A 1.01 1.01 0.0 0 1 528.46 376.47
  Q 534.86 375.08 541.43 376.15
  A 1.00 0.98 -52.1 0 0 542.01 376.07
  Q 547.32 373.66 553.01 374.33
  Q 553.39 374.38 552.96 374.43
  L 552.56 374.48
  Q 551.10 374.67 552.54 375.00
  Q 557.50 376.14 562.56 375.49
  C 566.32 375.02 570.76 375.50 574.71 377.50
  A 1.02 0.98 89.4 0 1 575.16 377.96
  C 577.11 382.04 580.43 377.88 582.55 381.49
  A 1.01 1.00 -14.2 0 0 583.38 381.98
  C 592.30 382.26 602.44 379.34 611.11 383.33
  Q 617.03 386.06 622.15 390.24
  A 0.99 0.95 -24.5 0 0 622.81 390.47
  Q 628.48 390.31 633.21 393.39
  Q 633.22 393.40 633.31 393.31
  L 633.43 393.19
  A 0.28 0.27 39.0 0 1 633.76 393.16
  C 638.08 395.72 640.98 399.57 645.02 401.98
  Q 647.71 403.57 650.41 405.17
  A 0.99 0.96 9.6 0 1 650.88 405.81
  L 651.05 406.58
  A 0.99 0.98 9.4 0 0 651.51 407.22
  Q 655.60 409.69 659.65 412.23
  C 661.00 413.07 662.30 414.55 664.17 415.24
  C 667.63 416.53 669.31 418.07 671.67 420.53
  Q 672.12 421.00 672.03 420.36
  L 671.98 419.98
  Q 671.86 419.10 672.52 419.70
  Q 674.11 421.11 676.69 422.79
  Q 678.31 423.85 677.35 424.55
  A 0.81 0.80 51.0 0 0 677.23 425.73
  Q 680.74 429.70 682.94 434.53
  Q 683.91 436.66 688.03 439.12
  A 0.18 0.14 -66.8 0 0 688.25 439.00
  L 688.31 438.81
  A 0.48 0.13 28.8 0 1 688.82 438.93
  L 692.58 441.06
  A 0.95 0.95 0.0 0 1 693.04 441.63
  Q 693.72 443.82 696.10 444.05
  A 1.02 1.00 -14.6 0 1 696.80 444.45
  Q 697.37 445.22 698.37 444.97
  A 1.01 0.98 12.1 0 0 698.91 444.63
  C 700.17 443.07 701.99 442.93 703.30 442.13
  Q 708.13 439.18 711.57 434.75
  C 713.65 432.06 716.77 429.35 717.73 425.08
  C 718.33 422.39 717.07 419.48 717.31 416.39
  A 1.04 0.98 -59.6 0 0 717.18 415.82
  Q 713.50 409.31 717.00 402.58
  A 1.00 1.00 0.0 0 0 717.05 401.78
  Q 715.56 397.64 716.86 393.52
  A 1.00 0.99 -63.8 0 0 716.48 392.39
  Q 715.31 391.58 715.22 390.21
  A 1.01 1.00 7.9 0 0 714.54 389.32
  C 711.70 388.38 709.04 386.15 706.48 385.70
  C 702.38 384.98 699.35 386.70 695.32 387.07
  C 689.08 387.65 683.23 394.89 677.34 388.71
  C 671.24 382.31 670.14 368.68 678.82 362.64
  Q 679.03 362.49 679.14 362.26
  Q 680.94 358.62 684.79 357.95
  A 0.51 0.51 0.0 0 0 685.21 357.44
  Q 685.21 357.01 685.75 356.75
  Q 687.59 355.87 688.99 356.95
  A 0.80 0.79 -43.3 0 1 688.95 358.24
  Q 688.49 358.55 689.31 358.34
  A 1.02 1.02 0.0 0 1 690.18 358.52
  Q 693.26 360.91 697.05 361.87
  A 0.64 0.64 0.0 0 0 697.84 361.22
  Q 697.83 360.94 697.63 360.66
  C 697.32 360.22 691.23 358.08 690.05 357.42
  A 0.33 0.32 25.3 0 1 689.90 357.02
  L 690.01 356.73
  A 0.52 0.51 17.0 0 0 689.64 356.05
  Q 688.93 355.89 689.72 355.47
  A 0.99 0.95 -4.0 0 0 690.17 354.97
  L 692.24 350.03
  A 1.04 1.00 86.8 0 1 692.65 349.55
  L 696.63 347.20
  A 1.00 1.00 0.0 0 0 696.79 345.59
  Q 692.29 341.62 687.01 338.79
  Q 684.62 337.51 682.72 335.86
  C 678.39 332.10 669.95 328.62 664.25 330.04
  A 0.95 0.93 45.6 0 1 663.73 330.03
  Q 660.06 328.96 656.32 328.24
  C 654.47 327.89 652.48 327.01 650.34 326.79
  Q 647.17 326.46 645.90 325.95
  C 643.19 324.86 641.36 323.01 638.31 323.22
  A 0.99 0.99 0.0 0 1 637.42 322.79
  C 634.42 318.42 626.07 317.29 621.21 317.37
  C 617.09 317.44 608.26 316.70 604.42 313.74
  Q 604.24 313.60 604.01 313.56
  Q 600.12 312.74 596.67 310.81
  Q 596.46 310.69 596.22 310.68
  C 592.05 310.52 587.80 309.33 583.70 309.71
  Q 581.38 309.93 579.23 308.78"
/>
<path stroke="#0d01b1" vector-effect="non-scaling-stroke" d="
  M 724.92 353.16
  Q 725.39 355.02 724.57 356.52
  Q 724.45 356.75 724.45 357.02
  Q 724.53 360.18 726.30 362.83
  A 0.96 0.95 -62.1 0 1 726.46 363.36
  C 726.50 364.99 726.22 366.01 727.15 367.47
  Q 729.35 370.92 732.22 373.80
  C 734.22 375.81 734.36 377.36 735.00 380.00
  C 735.81 383.35 738.62 386.27 739.55 390.00
  C 740.59 394.15 742.90 397.56 744.18 401.67
  C 745.03 404.39 746.45 406.15 748.16 408.19
  Q 748.32 408.37 748.54 408.46
  Q 753.00 410.37 755.10 413.10
  Q 757.65 416.39 757.81 416.55
  C 759.80 418.49 762.19 420.26 763.61 422.55
  C 765.22 425.15 765.53 428.40 767.11 430.25
  A 1.00 0.99 28.8 0 1 767.34 431.03
  Q 766.32 438.94 766.86 446.91
  A 1.08 1.07 -32.2 0 1 766.72 447.51
  Q 764.16 451.65 762.56 452.32
  Q 760.52 453.17 759.03 454.76
  Q 757.19 456.71 755.00 456.30
  C 752.82 455.89 750.52 456.61 748.72 455.98
  C 742.78 453.89 749.35 442.62 751.92 438.22
  A 1.01 0.97 6.4 0 1 752.52 437.76
  Q 755.40 436.98 755.61 434.20
  A 0.99 0.96 -67.3 0 0 755.29 433.39
  L 752.07 430.40
  A 1.07 1.06 -76.4 0 1 751.78 429.92
  Q 751.41 428.49 750.10 428.49
  A 1.01 1.01 0.0 0 0 749.23 429.02
  Q 747.06 433.04 743.29 435.66
  A 1.01 0.99 83.1 0 0 742.92 436.14
  Q 741.55 439.91 739.40 443.32
  C 737.49 446.36 739.33 449.29 737.78 452.39
  Q 736.23 455.51 733.24 457.53
  Q 732.40 458.10 733.35 458.07
  Q 733.79 458.05 733.47 458.19
  L 728.41 460.36
  Q 728.29 460.41 728.20 460.49
  C 724.06 463.66 713.11 458.32 709.03 457.17
  C 707.87 456.85 698.59 453.90 698.46 453.37
  A 0.53 0.51 -1.4 0 0 698.04 452.99
  Q 694.39 452.41 693.00 449.04
  A 0.26 0.10 68.1 0 1 693.00 448.75
  L 693.19 448.69
  Q 693.62 448.55 692.94 448.18
  Q 690.97 447.10 690.30 446.45
  C 684.29 440.66 678.52 435.08 672.46 428.93
  Q 667.53 423.92 661.84 419.74
  C 659.97 418.37 657.67 418.37 656.05 416.00
  Q 655.91 415.80 655.69 415.68
  Q 653.55 414.55 650.77 412.35
  Q 650.72 412.32 650.68 412.29
  C 647.51 410.31 645.11 407.19 642.68 405.18
  Q 639.65 402.68 636.61 400.19
  C 634.12 398.15 631.29 397.10 628.46 395.49
  C 625.91 394.04 622.98 393.99 620.58 393.03
  C 616.58 391.42 612.97 389.84 608.63 389.41
  Q 595.76 388.15 582.19 388.99
  Q 578.86 389.20 576.71 391.74
  Q 574.78 394.02 569.58 394.93
  Q 565.81 395.59 561.84 398.63
  Q 560.43 399.71 557.75 401.14
  Q 555.30 402.46 553.42 404.69
  A 1.00 1.00 0.0 0 0 553.36 405.89
  L 554.42 407.46
  A 1.02 1.00 -52.5 0 1 554.53 408.34
  C 553.81 410.48 552.15 412.06 551.37 413.70
  Q 550.56 415.38 549.90 417.29
  Q 549.62 418.09 549.25 418.85
  Q 545.59 426.59 542.84 433.10
  C 540.94 437.56 537.60 438.77 539.91 444.66
  A 1.01 0.95 45.3 0 1 539.93 445.35
  C 536.77 454.51 537.86 465.20 537.68 474.81
  C 537.53 483.04 539.66 490.54 542.17 498.13
  A 1.12 1.03 -83.2 0 0 542.53 498.63
  C 544.60 500.14 546.81 501.29 548.40 503.40
  C 552.35 508.63 560.94 517.29 567.87 517.61
  C 575.93 517.98 585.03 516.30 592.77 518.31
  A 0.99 0.94 74.6 0 1 593.25 518.60
  C 595.50 521.05 597.91 523.10 598.64 526.46
  C 599.77 531.73 600.76 540.79 594.27 543.29
  Q 590.66 544.69 593.69 544.79
  A 1.01 1.00 -4.7 0 1 594.64 545.59
  C 595.65 550.52 589.74 549.53 587.37 548.11
  A 1.01 1.00 -56.7 0 1 587.07 546.66
  L 589.10 543.87
  Q 590.55 541.88 588.20 542.64
  Q 585.95 543.38 583.77 543.38
  Q 580.61 543.37 580.04 546.49
  C 578.98 552.33 577.75 556.97 574.62 562.50
  Q 571.66 567.72 570.11 573.59
  Q 569.69 575.16 568.58 576.56
  Q 568.39 576.80 568.07 576.77
  A 0.52 0.50 -70.8 0 0 567.59 577.01
  Q 565.00 581.14 566.32 585.52
  C 568.07 591.32 568.24 594.92 566.05 600.80
  Q 561.56 612.86 555.15 622.52
  Q 554.52 623.48 554.40 622.34
  L 554.36 622.00
  Q 554.31 621.47 553.92 621.84
  C 547.96 627.55 545.62 636.21 538.74 640.81
  A 1.06 1.04 -10.1 0 0 538.32 641.40
  Q 537.48 644.74 537.79 648.17
  A 1.05 0.99 -68.3 0 0 538.00 648.70
  Q 541.98 653.77 536.15 658.18
  A 1.02 1.01 -45.8 0 1 534.96 658.20
  L 531.23 655.52
  A 0.95 0.91 8.6 0 1 530.86 655.04
  C 529.10 649.91 529.28 646.79 522.91 645.58
  Q 520.76 645.18 520.19 643.07
  Q 518.25 635.88 515.74 628.52
  C 514.45 624.74 515.10 621.33 512.17 617.67
  Q 512.01 617.46 511.96 617.20
  C 510.81 609.86 509.26 602.44 509.57 594.98
  C 510.00 584.25 506.30 576.69 498.63 569.56
  Q 494.19 565.44 491.67 559.90
  C 490.01 556.25 489.95 551.88 488.89 547.73
  C 488.19 544.98 486.19 542.76 484.65 540.36
  A 1.01 1.00 -58.0 0 1 484.50 539.68
  Q 484.66 538.56 483.47 538.53
  A 1.01 1.00 -16.0 0 1 482.65 538.08
  L 482.18 537.34
  A 0.99 0.99 0.0 0 1 482.21 536.22
  Q 484.09 533.59 482.45 530.76
  A 1.01 1.01 0.0 0 0 481.68 530.27
  Q 479.58 530.05 479.74 527.95
  A 1.00 0.96 69.4 0 1 480.01 527.32
  C 484.68 522.50 480.01 517.86 478.73 512.99
  C 477.66 508.92 478.94 503.34 479.44 499.08
  Q 479.46 498.91 479.34 499.05
  L 479.16 499.25
  Q 478.68 499.80 478.85 498.86
  C 479.56 494.92 481.46 491.60 481.59 487.76
  Q 481.78 482.13 481.23 480.78
  C 478.24 473.47 473.23 465.05 474.72 456.98
  Q 477.06 444.23 470.35 433.38
  Q 469.90 432.64 469.23 432.08
  A 1.04 1.04 0.0 0 1 468.90 431.51
  Q 468.21 428.04 469.00 424.69
  A 0.99 0.97 -51.8 0 0 468.93 424.04
  C 468.09 422.26 468.51 420.76 468.47 419.20
  Q 468.23 408.67 468.39 398.11
  A 0.99 0.99 0.0 0 0 467.95 397.27
  C 465.45 395.59 468.21 384.96 465.57 381.99
  C 464.29 380.55 464.00 379.61 463.52 377.91
  A 1.03 1.03 0.0 0 0 463.15 377.39
  Q 459.97 375.02 459.27 372.74
  C 458.11 368.98 454.49 365.98 451.82 363.20
  C 447.68 358.90 444.36 354.94 439.32 350.65
  C 432.44 344.77 425.71 344.06 417.19 345.56
  Q 414.31 346.06 411.72 347.60
  A 0.97 0.89 -56.9 0 1 411.17 347.74
  C 407.94 347.62 405.45 349.36 402.80 349.53
  C 399.88 349.71 396.85 348.92 394.39 349.02
  C 389.19 349.22 385.86 352.02 381.68 354.12
  C 376.51 356.74 374.30 363.73 371.23 368.23
  Q 370.17 369.79 369.17 375.82
  Q 369.12 376.08 368.96 376.28
  C 367.29 378.38 369.49 381.75 369.85 384.16
  Q 370.08 385.73 369.37 388.84
  C 368.19 393.95 368.10 399.16 370.53 403.95
  Q 372.27 407.41 372.80 411.26
  C 373.52 416.50 378.81 417.68 378.12 423.44
  A 1.01 1.00 32.4 0 0 378.27 424.09
  L 379.41 425.92
  Q 379.55 426.15 379.56 426.41
  Q 379.72 430.29 379.92 434.16
  C 380.00 435.63 381.11 436.98 381.17 438.32
  C 381.58 447.44 381.69 450.62 385.44 457.54
  C 385.86 458.31 385.77 459.09 385.75 459.93
  A 1.06 0.99 29.9 0 0 385.92 460.49
  C 387.46 462.85 388.66 464.61 389.05 467.60
  Q 390.02 475.19 393.86 481.75
  C 396.18 485.72 397.90 489.43 400.38 493.02
  A 1.07 0.99 -66.1 0 1 400.56 493.54
  C 400.77 497.67 400.61 502.02 402.01 505.77
  C 403.57 509.95 406.59 513.90 408.11 517.23
  Q 412.06 525.85 414.14 535.14
  C 414.92 538.64 417.08 540.58 417.21 544.44
  C 417.40 549.95 418.65 555.41 419.55 560.85
  Q 421.11 570.28 425.90 578.74
  A 0.95 0.94 34.4 0 1 426.02 579.36
  L 425.76 581.40
  A 0.99 0.99 0.0 0 0 426.15 582.33
  C 428.95 584.43 428.06 588.46 429.11 591.99
  C 430.77 597.56 430.20 605.18 430.45 611.07
  A 1.01 0.98 20.5 0 0 430.79 611.79
  C 436.39 616.67 437.92 621.68 439.18 629.28
  Q 439.50 631.21 444.37 639.75
  A 1.01 0.95 35.7 0 1 444.49 640.38
  L 443.68 646.42
  Q 443.64 646.75 443.94 646.44
  L 444.06 646.31
  Q 444.21 646.16 444.18 646.52
  C 443.98 648.84 444.49 653.37 443.40 655.23
  A 0.64 0.64 0.0 0 1 442.47 655.42
  Q 441.90 655.00 441.64 656.02
  C 440.91 658.83 445.06 661.02 445.99 662.79
  Q 447.01 664.72 446.98 667.03
  A 1.00 1.00 0.0 0 1 446.02 668.02
  L 443.99 668.09
  A 0.99 0.98 0.6 0 0 443.03 669.02
  L 442.79 672.55
  A 0.41 0.40 85.3 0 1 442.49 672.92
  L 442.14 673.01
  A 0.65 0.65 0.0 0 0 441.67 673.58
  C 441.13 680.18 434.18 680.77 429.27 678.91
  A 1.01 1.00 -88.8 0 1 428.67 678.28
  Q 427.92 675.91 428.35 673.43
  A 1.00 0.99 87.2 0 1 429.05 672.65
  L 435.23 670.81
  A 0.99 0.98 82.7 0 0 435.94 669.89
  Q 436.18 663.14 431.60 666.30
  C 428.04 668.76 425.29 667.84 421.86 668.28
  C 417.60 668.82 413.35 668.70 409.19 669.32
  C 403.13 670.23 398.14 670.28 391.32 672.06
  Q 387.75 672.99 384.06 673.01
  Q 373.40 673.05 362.72 673.95
  A 0.41 0.41 0.0 0 0 362.39 674.54
  L 362.56 674.89
  A 0.80 0.80 0.0 0 1 362.07 676.01
  Q 349.95 679.58 337.47 681.64
  C 326.30 683.48 316.26 680.00 305.76 679.74
  C 302.83 679.67 298.49 679.04 294.67 679.84
  Q 292.00 680.40 289.57 679.36
  A 0.41 0.41 0.0 0 0 289.00 679.74
  L 289.00 680.04
  A 0.51 0.50 -2.4 0 1 288.52 680.55
  L 281.98 680.97
  A 1.02 1.02 0.0 0 0 281.47 681.15
  Q 279.53 682.51 277.24 681.96
  A 0.95 0.93 -50.3 0 0 276.58 682.03
  Q 270.89 684.74 264.62 683.78
  A 0.97 0.94 69.4 0 1 264.11 683.54
  Q 262.06 681.72 259.70 680.38
  C 257.98 679.41 257.24 677.95 255.73 676.79
  C 253.18 674.85 251.56 672.74 249.13 670.98
  C 244.92 667.94 242.41 664.46 240.56 659.61
  C 239.55 656.93 239.99 653.65 238.14 650.58
  A 0.98 0.97 -56.1 0 1 238.01 649.91
  C 238.91 644.37 237.02 639.45 238.39 633.61
  A 1.00 1.00 0.0 0 0 238.36 633.04
  C 236.81 628.81 238.85 624.31 241.81 621.30
  C 245.98 617.05 256.81 618.01 262.10 619.07
  Q 262.13 619.08 266.27 620.46
  Q 270.38 621.82 275.20 619.86
  A 0.97 0.96 -45.4 0 1 275.92 619.85
  L 280.17 621.39
  Q 280.40 621.47 280.56 621.66
  C 282.69 623.97 284.50 625.46 287.90 625.55
  Q 300.95 625.91 311.06 625.33
  C 315.70 625.07 319.91 625.65 324.04 624.74
  C 328.23 623.82 334.61 626.06 335.46 619.75"
/>
<path stroke="#292194" vector-effect="non-scaling-stroke" d="
  M 696.28 463.39
  Q 693.45 458.21 687.76 456.49"
/>
<path stroke="#0a019e" vector-effect="non-scaling-stroke" d="
  M 558.08 502.72
  Q 561.78 506.86 565.41 508.84
  Q 567.00 509.71 570.29 510.40
  A 0.97 0.95 -15.9 0 1 570.77 510.66
  L 572.00 511.84
  A 1.02 0.99 -22.5 0 0 572.70 512.12
  L 590.12 512.09
  A 1.00 0.99 70.7 0 1 590.90 512.47
  Q 592.42 514.36 595.10 513.96
  A 1.00 1.00 0.0 0 1 595.98 514.26
  L 598.84 517.25
  A 1.05 1.01 -20.5 0 0 599.56 517.56
  C 602.67 517.56 604.28 521.76 605.28 524.42
  C 606.37 527.33 605.36 530.53 605.30 533.63
  A 1.03 1.00 66.6 0 1 605.06 534.26
  Q 603.95 535.58 604.46 537.28
  A 1.05 1.02 -48.1 0 1 604.48 537.81
  Q 603.45 542.17 603.35 546.64
  C 603.30 548.71 602.23 549.97 600.84 551.25
  C 597.47 554.36 592.58 552.32 588.71 554.00
  Q 584.78 555.70 582.78 559.06
  C 579.17 565.14 576.87 568.69 572.61 573.45
  Q 568.62 577.91 569.33 584.05
  C 569.86 588.63 569.49 592.60 570.25 596.88
  Q 570.76 599.76 570.47 602.16
  Q 567.87 623.87 570.39 645.58
  A 0.19 0.10 -87.3 0 0 570.46 645.72
  L 570.53 645.77
  A 0.33 0.21 21.8 0 1 570.70 646.00
  Q 570.28 654.85 566.85 663.04
  Q 566.48 663.90 566.50 663.00
  L 566.51 662.61
  Q 566.52 661.92 566.13 662.48
  Q 560.53 670.39 552.78 678.78
  Q 551.85 679.79 552.75 680.23
  A 0.52 0.52 0.0 0 1 552.99 680.89
  L 552.83 681.26
  A 0.80 0.80 0.0 0 1 551.54 681.53
  Q 550.22 680.26 548.89 681.70
  A 1.01 1.01 0.0 0 1 547.54 681.82
  L 546.07 680.68
  Q 545.74 680.43 545.75 680.75
  L 545.76 681.05
  Q 545.78 681.57 545.40 681.21
  Q 539.53 675.52 534.05 673.23
  Q 531.48 672.16 531.19 670.14
  A 1.02 0.99 9.9 0 0 530.64 669.38
  L 515.80 662.10
  A 1.00 0.99 14.5 0 1 515.24 661.16
  Q 515.42 657.08 515.56 652.99
  C 515.62 651.31 513.28 648.67 512.73 646.86
  Q 511.91 644.21 511.58 641.44
  A 0.46 0.13 85.5 0 0 511.44 641.06
  L 511.19 640.98
  A 0.83 0.82 -88.7 0 1 510.67 640.43
  C 509.00 634.34 505.91 628.83 504.43 623.07
  Q 502.69 616.29 500.98 609.49
  Q 500.97 609.45 500.82 609.18
  Q 500.74 609.04 500.96 608.97
  A 0.27 0.27 0.0 0 0 501.12 608.63
  C 498.56 601.45 494.22 588.99 486.52 585.97
  Q 486.12 585.81 485.70 585.88
  A 1.01 1.00 76.7 0 1 484.58 585.18
  Q 484.11 583.64 483.04 582.50"
/>
<path stroke="#070188" vector-effect="non-scaling-stroke" d="
  M 457.32 676.31
  Q 455.20 677.50 452.77 677.45
  A 0.99 0.98 -73.1 0 0 451.90 677.92
  Q 448.52 683.33 443.88 687.65
  C 434.71 696.17 424.06 692.71 413.18 692.64
  Q 405.63 692.58 398.12 693.38
  C 393.83 693.84 389.12 693.71 384.63 694.28
  C 378.30 695.08 372.75 694.85 366.70 695.35
  C 359.49 695.94 352.35 694.55 345.07 694.84
  C 335.69 695.22 331.29 695.28 323.75 694.78
  Q 315.04 694.20 304.75 695.69
  Q 300.64 696.29 281.93 697.07
  Q 279.95 697.16 279.21 696.99
  Q 278.97 696.94 278.72 697.00
  Q 274.51 698.17 270.12 697.95
  A 1.00 0.96 -21.8 0 1 269.53 697.71
  Q 268.30 696.67 266.65 696.51
  A 0.96 0.96 0.0 0 1 266.04 696.22
  Q 263.21 693.40 259.17 692.69
  A 0.97 0.95 -14.2 0 1 258.57 692.34
  Q 257.82 691.41 257.96 693.25"
/>
<path stroke="#070188" vector-effect="non-scaling-stroke" d="
  M 226.88 610.23
  Q 231.25 608.51 234.97 609.24
  C 237.44 609.72 239.69 609.21 242.24 609.53
  C 246.62 610.08 268.14 611.84 269.67 609.07
  A 1.02 1.02 0.0 0 1 270.77 608.58
  Q 274.68 609.45 278.25 607.79"
/>
<path stroke="#060181" vector-effect="non-scaling-stroke" d="
  M 580.44 605.74
  Q 579.76 611.48 578.57 617.10
  C 577.67 621.32 578.65 625.56 578.30 629.94
  C 578.19 631.39 579.05 632.57 578.88 634.18
  C 577.91 643.54 580.50 652.97 578.55 661.80
  C 577.86 664.95 578.82 667.66 578.87 669.98
  C 578.95 674.51 582.23 688.37 580.20 691.54
  C 578.70 693.89 576.72 693.95 573.90 693.62
  C 568.19 692.95 562.68 692.49 556.86 693.90
  C 550.85 695.35 545.95 695.46 540.35 692.48
  Q 536.40 690.38 531.87 689.83
  Q 531.65 689.81 531.47 689.70
  Q 524.99 685.79 517.81 684.45"
/>
<path stroke="#252077" vector-effect="non-scaling-stroke" d="
  M 588.46 689.25
  Q 588.39 696.00 586.91 702.62"
/>
</g>
<path fill="#182b4e" d="
  M 513.41 828.72
  Q 514.44 828.18 515.23 828.66
  A 1.01 0.98 -75.5 0 1 515.71 829.50
  Q 515.80 835.34 515.81 841.19
  Q 515.97 924.88 516.02 1008.63
  Q 516.03 1010.53 517.59 1009.45
  Q 520.57 1007.40 525.45 1003.20
  Q 812.56 756.28 1099.25 509.85
  A 1.00 1.00 0.0 0 0 1099.25 508.33
  L 517.39 8.13
  Q 516.14 7.05 516.07 8.70
  Q 515.72 16.91 515.82 25.10
  C 516.49 79.65 516.50 134.46 515.50 188.99
  C 515.48 190.20 514.52 191.27 513.44 190.07
  Q 513.03 112.60 513.36 35.31
  Q 513.43 19.18 513.25 3.02
  Q 513.23 0.81 514.90 2.25
  Q 520.27 6.89 525.55 11.43
  Q 751.63 205.85 977.74 400.23
  Q 1039.95 453.70 1102.59 508.05
  A 1.00 1.00 0.0 0 1 1102.64 509.52
  Q 1100.44 511.70 1097.24 514.49
  Q 1059.63 547.28 1021.79 579.81
  Q 768.31 797.69 514.94 1015.72
  Q 513.28 1017.14 513.28 1014.96
  L 513.41 828.72
  Z"
/>
<path fill="#0d0d0d" d="
  M 513.41 828.72
  C 503.30 829.23 493.11 830.56 483.18 830.73
  C 467.23 831.01 450.91 831.50 434.83 830.33
  C 340.60 823.52 251.19 779.11 190.28 706.98
  C 155.56 665.85 129.71 612.69 121.67 558.49
  C 120.53 550.80 119.55 543.22 118.71 535.49
  C 117.97 528.66 118.35 521.36 117.95 514.26
  Q 117.61 508.24 117.90 502.75
  C 118.30 495.09 118.13 487.57 119.05 479.98
  C 119.65 475.00 120.08 469.66 120.80 465.03
  C 132.31 391.40 169.14 325.19 225.27 276.15
  C 298.78 211.92 393.63 181.25 491.07 188.68
  Q 507.57 189.94 513.44 190.07
  C 514.52 191.27 515.48 190.20 515.50 188.99
  C 516.50 134.46 516.49 79.65 515.82 25.10
  Q 515.72 16.91 516.07 8.70
  Q 516.14 7.05 517.39 8.13
  L 1099.25 508.33
  A 1.00 1.00 0.0 0 1 1099.25 509.85
  Q 812.56 756.28 525.45 1003.20
  Q 520.57 1007.40 517.59 1009.45
  Q 516.03 1010.53 516.02 1008.63
  Q 515.97 924.88 515.81 841.19
  Q 515.80 835.34 515.71 829.50
  A 1.01 0.98 -75.5 0 0 515.23 828.66
  Q 514.44 828.18 513.41 828.72
  Z
  M 808.7495 509.1561
  A 330.08 291.79 0.1 0 0 479.1793 216.7904
  A 330.08 291.79 0.1 0 0 148.5905 508.0039
  A 330.08 291.79 0.1 0 0 478.1607 800.3696
  A 330.08 291.79 0.1 0 0 808.7495 509.1561
  Z"
/>
<path fill="#6168c7" d="
  M 474.81 286.88
  Q 466.70 284.57 459.01 281.31
  C 450.19 277.56 441.12 278.48 430.51 279.38
  Q 428.80 279.53 429.00 278.45
  C 437.34 277.14 447.83 275.72 455.99 278.26
  Q 465.91 281.35 474.81 286.88
  Z"
/>
<path fill="#0b01a4" d="
  M 429.00 278.45
  Q 428.80 279.53 430.51 279.38
  C 441.12 278.48 450.19 277.56 459.01 281.31
  Q 466.70 284.57 474.81 286.88
  Q 484.39 294.08 486.65 297.34
  Q 491.94 304.95 498.72 311.23
  C 502.33 314.57 505.38 318.02 508.91 321.28
  C 512.61 324.70 512.79 328.17 518.99 328.48
  Q 525.04 328.78 531.01 327.75
  Q 533.84 327.27 535.39 324.84
  Q 537.34 321.77 540.75 319.04
  Q 538.42 322.43 535.81 325.61
  C 532.27 329.94 525.63 329.49 521.00 330.00
  C 517.71 330.35 514.72 327.67 510.89 327.72
  A 1.01 1.00 64.5 0 1 510.25 327.49
  C 507.18 324.99 502.00 322.02 498.84 318.56
  Q 497.21 316.77 495.23 315.48
  Q 491.42 312.99 488.39 309.51
  A 1.09 1.08 -11.6 0 0 487.93 309.21
  C 486.28 308.71 483.18 304.92 481.53 303.64
  C 476.98 300.11 474.27 296.93 467.93 294.58
  Q 462.83 292.70 451.56 286.49
  C 448.76 284.95 447.08 281.76 443.07 282.12
  Q 437.40 282.63 434.71 282.38
  Q 434.45 282.36 434.24 282.22
  Q 432.64 281.13 430.73 281.75
  Q 430.25 281.90 429.17 282.64
  C 422.69 287.05 418.02 284.04 411.26 284.80
  C 404.90 285.52 398.71 284.59 392.28 285.09
  C 383.07 285.81 375.37 284.10 364.60 284.44
  A 1.06 1.00 57.5 0 1 364.05 284.30
  Q 360.13 281.91 355.46 280.96
  C 359.94 279.75 364.29 278.09 368.92 278.22
  C 389.01 278.74 408.90 278.86 429.00 278.45
  Z"
/>
<path fill="#0e00bd" d="
  M 355.46 280.96
  Q 360.13 281.91 364.05 284.30
  A 1.06 1.00 57.5 0 0 364.60 284.44
  C 375.37 284.10 383.07 285.81 392.28 285.09
  C 398.71 284.59 404.90 285.52 411.26 284.80
  C 418.02 284.04 422.69 287.05 429.17 282.64
  Q 430.25 281.90 430.73 281.75
  Q 432.64 281.13 434.24 282.22
  Q 434.45 282.36 434.71 282.38
  Q 437.40 282.63 443.07 282.12
  C 447.08 281.76 448.76 284.95 451.56 286.49
  Q 462.83 292.70 467.93 294.58
  C 474.27 296.93 476.98 300.11 481.53 303.64
  C 483.18 304.92 486.28 308.71 487.93 309.21
  A 1.09 1.08 -11.6 0 1 488.39 309.51
  Q 491.42 312.99 495.23 315.48
  Q 497.21 316.77 498.84 318.56
  C 502.00 322.02 507.18 324.99 510.25 327.49
  A 1.01 1.00 64.5 0 0 510.89 327.72
  C 514.72 327.67 517.71 330.35 521.00 330.00
  C 525.63 329.49 532.27 329.94 535.81 325.61
  Q 538.42 322.43 540.75 319.04
  L 542.25 318.29
  Q 542.06 318.97 541.55 319.38
  A 0.65 0.65 0.0 0 0 541.49 320.32
  L 541.72 320.57
  A 1.01 0.99 33.1 0 1 541.94 321.57
  C 541.12 324.01 541.12 326.07 539.75 328.38
  C 538.17 331.03 537.44 333.95 536.01 336.54
  Q 534.08 340.02 532.71 343.76
  C 530.09 350.87 524.71 352.08 518.92 354.44
  A 0.96 0.96 0.0 0 1 518.25 354.47
  Q 517.34 354.19 516.66 354.73
  A 1.00 1.00 0.0 0 0 516.61 356.27
  Q 518.24 357.71 518.44 359.58
  Q 519.17 366.71 520.24 370.68
  A 1.02 1.01 -41.9 0 1 520.20 371.33
  L 517.23 378.39
  A 1.01 0.95 -7.6 0 1 516.87 378.83
  Q 510.63 383.02 509.83 390.66
  A 1.01 0.99 -58.5 0 0 509.97 391.27
  Q 514.35 398.70 506.34 400.12
  Q 502.51 400.80 504.83 404.05
  C 506.84 406.88 513.76 410.51 510.48 414.00
  Q 507.85 416.81 504.55 418.82
  A 1.07 1.04 85.6 0 0 504.13 419.32
  C 502.63 423.20 499.35 424.33 495.46 424.52
  C 490.78 424.75 486.32 420.53 481.62 423.01
  C 477.10 425.39 477.07 431.61 479.63 435.51
  Q 479.78 435.73 479.80 435.99
  Q 479.97 438.59 480.54 441.12
  C 481.63 445.96 481.43 450.73 481.56 455.54
  A 0.21 0.18 8.2 0 0 481.72 455.72
  L 481.97 455.77
  A 0.26 0.26 0.0 0 1 482.18 455.98
  C 482.74 459.31 483.40 464.83 485.13 467.77
  A 0.89 0.86 -61.4 0 1 485.27 468.28
  C 485.24 471.79 487.30 474.15 488.12 476.91
  C 489.80 482.58 492.30 487.40 494.50 493.35
  Q 496.66 499.20 500.61 504.08
  C 501.85 505.62 504.40 507.06 505.29 509.61
  C 506.38 512.76 509.60 523.42 514.09 521.62
  Q 521.73 518.55 524.11 509.43
  C 525.57 503.82 527.35 496.05 525.85 490.38
  Q 524.83 486.50 525.98 482.53
  A 1.08 1.02 46.8 0 0 525.98 481.96
  C 524.69 477.64 525.93 474.63 526.04 470.40
  C 526.15 466.44 528.41 464.90 526.84 460.48
  A 1.00 1.00 0.0 0 1 526.99 459.54
  L 527.97 458.26
  A 1.00 0.99 40.9 0 0 527.87 456.94
  C 526.08 455.20 526.66 453.99 527.47 451.46
  Q 527.94 449.97 527.65 447.81
  C 527.14 443.93 528.33 437.04 526.19 432.33
  Q 523.98 427.45 519.86 423.84
  A 0.96 0.93 -74.5 0 1 519.54 423.25
  Q 519.10 420.67 520.81 419.16
  Q 521.88 418.22 520.51 417.80
  Q 517.69 416.94 515.71 414.94
  Q 513.44 412.66 513.59 409.41
  Q 513.75 406.06 515.79 403.28
  A 0.96 0.96 0.0 0 0 515.98 402.65
  C 515.94 401.25 516.61 392.30 518.76 395.24
  A 1.02 1.01 -64.1 0 1 518.95 395.80
  Q 519.04 399.07 521.06 401.81
  A 1.00 1.00 0.0 0 0 522.59 401.90
  Q 526.95 397.27 523.41 392.40
  A 0.99 0.97 -62.9 0 1 523.22 391.79
  L 523.35 386.26
  A 1.03 1.02 65.6 0 1 523.58 385.64
  Q 526.69 381.95 527.69 377.24
  A 1.01 1.01 0.0 0 1 528.46 376.47
  Q 534.86 375.08 541.43 376.15
  A 1.00 0.98 -52.1 0 0 542.01 376.07
  Q 547.32 373.66 553.01 374.33
  Q 553.39 374.38 552.96 374.43
  L 552.56 374.48
  Q 551.10 374.67 552.54 375.00
  Q 557.50 376.14 562.56 375.49
  C 566.32 375.02 570.76 375.50 574.71 377.50
  A 1.02 0.98 89.4 0 1 575.16 377.96
  C 577.11 382.04 580.43 377.88 582.55 381.49
  A 1.01 1.00 -14.2 0 0 583.38 381.98
  C 592.30 382.26 602.44 379.34 611.11 383.33
  Q 617.03 386.06 622.15 390.24
  A 0.99 0.95 -24.5 0 0 622.81 390.47
  Q 628.48 390.31 633.21 393.39
  Q 633.22 393.40 633.31 393.31
  L 633.43 393.19
  A 0.28 0.27 39.0 0 1 633.76 393.16
  C 638.08 395.72 640.98 399.57 645.02 401.98
  Q 647.71 403.57 650.41 405.17
  A 0.99 0.96 9.6 0 1 650.88 405.81
  L 651.05 406.58
  A 0.99 0.98 9.4 0 0 651.51 407.22
  Q 655.60 409.69 659.65 412.23
  C 661.00 413.07 662.30 414.55 664.17 415.24
  C 667.63 416.53 669.31 418.07 671.67 420.53
  Q 672.12 421.00 672.03 420.36
  L 671.98 419.98
  Q 671.86 419.10 672.52 419.70
  Q 674.11 421.11 676.69 422.79
  Q 678.31 423.85 677.35 424.55
  A 0.81 0.80 51.0 0 0 677.23 425.73
  Q 680.74 429.70 682.94 434.53
  Q 683.91 436.66 688.03 439.12
  A 0.18 0.14 -66.8 0 0 688.25 439.00
  L 688.31 438.81
  A 0.48 0.13 28.8 0 1 688.82 438.93
  L 692.58 441.06
  A 0.95 0.95 0.0 0 1 693.04 441.63
  Q 693.72 443.82 696.10 444.05
  A 1.02 1.00 -14.6 0 1 696.80 444.45
  Q 697.37 445.22 698.37 444.97
  A 1.01 0.98 12.1 0 0 698.91 444.63
  C 700.17 443.07 701.99 442.93 703.30 442.13
  Q 708.13 439.18 711.57 434.75
  C 713.65 432.06 716.77 429.35 717.73 425.08
  C 718.33 422.39 717.07 419.48 717.31 416.39
  A 1.04 0.98 -59.6 0 0 717.18 415.82
  Q 713.50 409.31 717.00 402.58
  A 1.00 1.00 0.0 0 0 717.05 401.78
  Q 715.56 397.64 716.86 393.52
  A 1.00 0.99 -63.8 0 0 716.48 392.39
  Q 715.31 391.58 715.22 390.21
  A 1.01 1.00 7.9 0 0 714.54 389.32
  C 711.70 388.38 709.04 386.15 706.48 385.70
  C 702.38 384.98 699.35 386.70 695.32 387.07
  C 689.08 387.65 683.23 394.89 677.34 388.71
  C 671.24 382.31 670.14 368.68 678.82 362.64
  Q 679.03 362.49 679.14 362.26
  Q 680.94 358.62 684.79 357.95
  A 0.51 0.51 0.0 0 0 685.21 357.44
  Q 685.21 357.01 685.75 356.75
  Q 687.59 355.87 688.99 356.95
  A 0.80 0.79 -43.3 0 1 688.95 358.24
  Q 688.49 358.55 689.31 358.34
  A 1.02 1.02 0.0 0 1 690.18 358.52
  Q 693.26 360.91 697.05 361.87
  A 0.64 0.64 0.0 0 0 697.84 361.22
  Q 697.83 360.94 697.63 360.66
  C 697.32 360.22 691.23 358.08 690.05 357.42
  A 0.33 0.32 25.3 0 1 689.90 357.02
  L 690.01 356.73
  A 0.52 0.51 17.0 0 0 689.64 356.05
  Q 688.93 355.89 689.72 355.47
  A 0.99 0.95 -4.0 0 0 690.17 354.97
  L 692.24 350.03
  A 1.04 1.00 86.8 0 1 692.65 349.55
  L 696.63 347.20
  A 1.00 1.00 0.0 0 0 696.79 345.59
  Q 692.29 341.62 687.01 338.79
  Q 684.62 337.51 682.72 335.86
  C 678.39 332.10 669.95 328.62 664.25 330.04
  A 0.95 0.93 45.6 0 1 663.73 330.03
  Q 660.06 328.96 656.32 328.24
  C 654.47 327.89 652.48 327.01 650.34 326.79
  Q 647.17 326.46 645.90 325.95
  C 643.19 324.86 641.36 323.01 638.31 323.22
  A 0.99 0.99 0.0 0 1 637.42 322.79
  C 634.42 318.42 626.07 317.29 621.21 317.37
  C 617.09 317.44 608.26 316.70 604.42 313.74
  Q 604.24 313.60 604.01 313.56
  Q 600.12 312.74 596.67 310.81
  Q 596.46 310.69 596.22 310.68
  C 592.05 310.52 587.80 309.33 583.70 309.71
  Q 581.38 309.93 579.23 308.78
  Q 591.56 307.55 603.94 307.53
  C 610.40 307.52 616.92 306.00 623.26 304.78
  C 629.05 303.66 633.97 305.30 639.35 305.28
  C 648.44 305.26 657.87 304.95 666.30 309.16
  C 670.26 311.14 675.05 312.70 678.46 314.44
  Q 692.87 321.79 703.92 333.62
  Q 705.97 335.80 708.53 337.32
  C 715.09 341.20 719.69 347.68 724.92 353.16
  Q 725.39 355.02 724.57 356.52
  Q 724.45 356.75 724.45 357.02
  Q 724.53 360.18 726.30 362.83
  A 0.96 0.95 -62.1 0 1 726.46 363.36
  C 726.50 364.99 726.22 366.01 727.15 367.47
  Q 729.35 370.92 732.22 373.80
  C 734.22 375.81 734.36 377.36 735.00 380.00
  C 735.81 383.35 738.62 386.27 739.55 390.00
  C 740.59 394.15 742.90 397.56 744.18 401.67
  C 745.03 404.39 746.45 406.15 748.16 408.19
  Q 748.32 408.37 748.54 408.46
  Q 753.00 410.37 755.10 413.10
  Q 757.65 416.39 757.81 416.55
  C 759.80 418.49 762.19 420.26 763.61 422.55
  C 765.22 425.15 765.53 428.40 767.11 430.25
  A 1.00 0.99 28.8 0 1 767.34 431.03
  Q 766.32 438.94 766.86 446.91
  A 1.08 1.07 -32.2 0 1 766.72 447.51
  Q 764.16 451.65 762.56 452.32
  Q 760.52 453.17 759.03 454.76
  Q 757.19 456.71 755.00 456.30
  C 752.82 455.89 750.52 456.61 748.72 455.98
  C 742.78 453.89 749.35 442.62 751.92 438.22
  A 1.01 0.97 6.4 0 1 752.52 437.76
  Q 755.40 436.98 755.61 434.20
  A 0.99 0.96 -67.3 0 0 755.29 433.39
  L 752.07 430.40
  A 1.07 1.06 -76.4 0 1 751.78 429.92
  Q 751.41 428.49 750.10 428.49
  A 1.01 1.01 0.0 0 0 749.23 429.02
  Q 747.06 433.04 743.29 435.66
  A 1.01 0.99 83.1 0 0 742.92 436.14
  Q 741.55 439.91 739.40 443.32
  C 737.49 446.36 739.33 449.29 737.78 452.39
  Q 736.23 455.51 733.24 457.53
  Q 732.40 458.10 733.35 458.07
  Q 733.79 458.05 733.47 458.19
  L 728.41 460.36
  Q 728.29 460.41 728.20 460.49
  C 724.06 463.66 713.11 458.32 709.03 457.17
  C 707.87 456.85 698.59 453.90 698.46 453.37
  A 0.53 0.51 -1.4 0 0 698.04 452.99
  Q 694.39 452.41 693.00 449.04
  A 0.26 0.10 68.1 0 1 693.00 448.75
  L 693.19 448.69
  Q 693.62 448.55 692.94 448.18
  Q 690.97 447.10 690.30 446.45
  C 684.29 440.66 678.52 435.08 672.46 428.93
  Q 667.53 423.92 661.84 419.74
  C 659.97 418.37 657.67 418.37 656.05 416.00
  Q 655.91 415.80 655.69 415.68
  Q 653.55 414.55 650.77 412.35
  Q 650.72 412.32 650.68 412.29
  C 647.51 410.31 645.11 407.19 642.68 405.18
  Q 639.65 402.68 636.61 400.19
  C 634.12 398.15 631.29 397.10 628.46 395.49
  C 625.91 394.04 622.98 393.99 620.58 393.03
  C 616.58 391.42 612.97 389.84 608.63 389.41
  Q 595.76 388.15 582.19 388.99
  Q 578.86 389.20 576.71 391.74
  Q 574.78 394.02 569.58 394.93
  Q 565.81 395.59 561.84 398.63
  Q 560.43 399.71 557.75 401.14
  Q 555.30 402.46 553.42 404.69
  A 1.00 1.00 0.0 0 0 553.36 405.89
  L 554.42 407.46
  A 1.02 1.00 -52.5 0 1 554.53 408.34
  C 553.81 410.48 552.15 412.06 551.37 413.70
  Q 550.56 415.38 549.90 417.29
  Q 549.62 418.09 549.25 418.85
  Q 545.59 426.59 542.84 433.10
  C 540.94 437.56 537.60 438.77 539.91 444.66
  A 1.01 0.95 45.3 0 1 539.93 445.35
  C 536.77 454.51 537.86 465.20 537.68 474.81
  C 537.53 483.04 539.66 490.54 542.17 498.13
  A 1.12 1.03 -83.2 0 0 542.53 498.63
  C 544.60 500.14 546.81 501.29 548.40 503.40
  C 552.35 508.63 560.94 517.29 567.87 517.61
  C 575.93 517.98 585.03 516.30 592.77 518.31
  A 0.99 0.94 74.6 0 1 593.25 518.60
  C 595.50 521.05 597.91 523.10 598.64 526.46
  C 599.77 531.73 600.76 540.79 594.27 543.29
  Q 590.66 544.69 593.69 544.79
  A 1.01 1.00 -4.7 0 1 594.64 545.59
  C 595.65 550.52 589.74 549.53 587.37 548.11
  A 1.01 1.00 -56.7 0 1 587.07 546.66
  L 589.10 543.87
  Q 590.55 541.88 588.20 542.64
  Q 585.95 543.38 583.77 543.38
  Q 580.61 543.37 580.04 546.49
  C 578.98 552.33 577.75 556.97 574.62 562.50
  Q 571.66 567.72 570.11 573.59
  Q 569.69 575.16 568.58 576.56
  Q 568.39 576.80 568.07 576.77
  A 0.52 0.50 -70.8 0 0 567.59 577.01
  Q 565.00 581.14 566.32 585.52
  C 568.07 591.32 568.24 594.92 566.05 600.80
  Q 561.56 612.86 555.15 622.52
  Q 554.52 623.48 554.40 622.34
  L 554.36 622.00
  Q 554.31 621.47 553.92 621.84
  C 547.96 627.55 545.62 636.21 538.74 640.81
  A 1.06 1.04 -10.1 0 0 538.32 641.40
  Q 537.48 644.74 537.79 648.17
  A 1.05 0.99 -68.3 0 0 538.00 648.70
  Q 541.98 653.77 536.15 658.18
  A 1.02 1.01 -45.8 0 1 534.96 658.20
  L 531.23 655.52
  A 0.95 0.91 8.6 0 1 530.86 655.04
  C 529.10 649.91 529.28 646.79 522.91 645.58
  Q 520.76 645.18 520.19 643.07
  Q 518.25 635.88 515.74 628.52
  C 514.45 624.74 515.10 621.33 512.17 617.67
  Q 512.01 617.46 511.96 617.20
  C 510.81 609.86 509.26 602.44 509.57 594.98
  C 510.00 584.25 506.30 576.69 498.63 569.56
  Q 494.19 565.44 491.67 559.90
  C 490.01 556.25 489.95 551.88 488.89 547.73
  C 488.19 544.98 486.19 542.76 484.65 540.36
  A 1.01 1.00 -58.0 0 1 484.50 539.68
  Q 484.66 538.56 483.47 538.53
  A 1.01 1.00 -16.0 0 1 482.65 538.08
  L 482.18 537.34
  A 0.99 0.99 0.0 0 1 482.21 536.22
  Q 484.09 533.59 482.45 530.76
  A 1.01 1.01 0.0 0 0 481.68 530.27
  Q 479.58 530.05 479.74 527.95
  A 1.00 0.96 69.4 0 1 480.01 527.32
  C 484.68 522.50 480.01 517.86 478.73 512.99
  C 477.66 508.92 478.94 503.34 479.44 499.08
  Q 479.46 498.91 479.34 499.05
  L 479.16 499.25
  Q 478.68 499.80 478.85 498.86
  C 479.56 494.92 481.46 491.60 481.59 487.76
  Q 481.78 482.13 481.23 480.78
  C 478.24 473.47 473.23 465.05 474.72 456.98
  Q 477.06 444.23 470.35 433.38
  Q 469.90 432.64 469.23 432.08
  A 1.04 1.04 0.0 0 1 468.90 431.51
  Q 468.21 428.04 469.00 424.69
  A 0.99 0.97 -51.8 0 0 468.93 424.04
  C 468.09 422.26 468.51 420.76 468.47 419.20
  Q 468.23 408.67 468.39 398.11
  A 0.99 0.99 0.0 0 0 467.95 397.27
  C 465.45 395.59 468.21 384.96 465.57 381.99
  C 464.29 380.55 464.00 379.61 463.52 377.91
  A 1.03 1.03 0.0 0 0 463.15 377.39
  Q 459.97 375.02 459.27 372.74
  C 458.11 368.98 454.49 365.98 451.82 363.20
  C 447.68 358.90 444.36 354.94 439.32 350.65
  C 432.44 344.77 425.71 344.06 417.19 345.56
  Q 414.31 346.06 411.72 347.60
  A 0.97 0.89 -56.9 0 1 411.17 347.74
  C 407.94 347.62 405.45 349.36 402.80 349.53
  C 399.88 349.71 396.85 348.92 394.39 349.02
  C 389.19 349.22 385.86 352.02 381.68 354.12
  C 376.51 356.74 374.30 363.73 371.23 368.23
  Q 370.17 369.79 369.17 375.82
  Q 369.12 376.08 368.96 376.28
  C 367.29 378.38 369.49 381.75 369.85 384.16
  Q 370.08 385.73 369.37 388.84
  C 368.19 393.95 368.10 399.16 370.53 403.95
  Q 372.27 407.41 372.80 411.26
  C 373.52 416.50 378.81 417.68 378.12 423.44
  A 1.01 1.00 32.4 0 0 378.27 424.09
  L 379.41 425.92
  Q 379.55 426.15 379.56 426.41
  Q 379.72 430.29 379.92 434.16
  C 380.00 435.63 381.11 436.98 381.17 438.32
  C 381.58 447.44 381.69 450.62 385.44 457.54
  C 385.86 458.31 385.77 459.09 385.75 459.93
  A 1.06 0.99 29.9 0 0 385.92 460.49
  C 387.46 462.85 388.66 464.61 389.05 467.60
  Q 390.02 475.19 393.86 481.75
  C 396.18 485.72 397.90 489.43 400.38 493.02
  A 1.07 0.99 -66.1 0 1 400.56 493.54
  C 400.77 497.67 400.61 502.02 402.01 505.77
  C 403.57 509.95 406.59 513.90 408.11 517.23
  Q 412.06 525.85 414.14 535.14
  C 414.92 538.64 417.08 540.58 417.21 544.44
  C 417.40 549.95 418.65 555.41 419.55 560.85
  Q 421.11 570.28 425.90 578.74
  A 0.95 0.94 34.4 0 1 426.02 579.36
  L 425.76 581.40
  A 0.99 0.99 0.0 0 0 426.15 582.33
  C 428.95 584.43 428.06 588.46 429.11 591.99
  C 430.77 597.56 430.20 605.18 430.45 611.07
  A 1.01 0.98 20.5 0 0 430.79 611.79
  C 436.39 616.67 437.92 621.68 439.18 629.28
  Q 439.50 631.21 444.37 639.75
  A 1.01 0.95 35.7 0 1 444.49 640.38
  L 443.68 646.42
  Q 443.64 646.75 443.94 646.44
  L 444.06 646.31
  Q 444.21 646.16 444.18 646.52
  C 443.98 648.84 444.49 653.37 443.40 655.23
  A 0.64 0.64 0.0 0 1 442.47 655.42
  Q 441.90 655.00 441.64 656.02
  C 440.91 658.83 445.06 661.02 445.99 662.79
  Q 447.01 664.72 446.98 667.03
  A 1.00 1.00 0.0 0 1 446.02 668.02
  L 443.99 668.09
  A 0.99 0.98 0.6 0 0 443.03 669.02
  L 442.79 672.55
  A 0.41 0.40 85.3 0 1 442.49 672.92
  L 442.14 673.01
  A 0.65 0.65 0.0 0 0 441.67 673.58
  C 441.13 680.18 434.18 680.77 429.27 678.91
  A 1.01 1.00 -88.8 0 1 428.67 678.28
  Q 427.92 675.91 428.35 673.43
  A 1.00 0.99 87.2 0 1 429.05 672.65
  L 435.23 670.81
  A 0.99 0.98 82.7 0 0 435.94 669.89
  Q 436.18 663.14 431.60 666.30
  C 428.04 668.76 425.29 667.84 421.86 668.28
  C 417.60 668.82 413.35 668.70 409.19 669.32
  C 403.13 670.23 398.14 670.28 391.32 672.06
  Q 387.75 672.99 384.06 673.01
  Q 373.40 673.05 362.72 673.95
  A 0.41 0.41 0.0 0 0 362.39 674.54
  L 362.56 674.89
  A 0.80 0.80 0.0 0 1 362.07 676.01
  Q 349.95 679.58 337.47 681.64
  C 326.30 683.48 316.26 680.00 305.76 679.74
  C 302.83 679.67 298.49 679.04 294.67 679.84
  Q 292.00 680.40 289.57 679.36
  A 0.41 0.41 0.0 0 0 289.00 679.74
  L 289.00 680.04
  A 0.51 0.50 -2.4 0 1 288.52 680.55
  L 281.98 680.97
  A 1.02 1.02 0.0 0 0 281.47 681.15
  Q 279.53 682.51 277.24 681.96
  A 0.95 0.93 -50.3 0 0 276.58 682.03
  Q 270.89 684.74 264.62 683.78
  A 0.97 0.94 69.4 0 1 264.11 683.54
  Q 262.06 681.72 259.70 680.38
  C 257.98 679.41 257.24 677.95 255.73 676.79
  C 253.18 674.85 251.56 672.74 249.13 670.98
  C 244.92 667.94 242.41 664.46 240.56 659.61
  C 239.55 656.93 239.99 653.65 238.14 650.58
  A 0.98 0.97 -56.1 0 1 238.01 649.91
  C 238.91 644.37 237.02 639.45 238.39 633.61
  A 1.00 1.00 0.0 0 0 238.36 633.04
  C 236.81 628.81 238.85 624.31 241.81 621.30
  C 245.98 617.05 256.81 618.01 262.10 619.07
  Q 262.13 619.08 266.27 620.46
  Q 270.38 621.82 275.20 619.86
  A 0.97 0.96 -45.4 0 1 275.92 619.85
  L 280.17 621.39
  Q 280.40 621.47 280.56 621.66
  C 282.69 623.97 284.50 625.46 287.90 625.55
  Q 300.95 625.91 311.06 625.33
  C 315.70 625.07 319.91 625.65 324.04 624.74
  C 328.23 623.82 334.61 626.06 335.46 619.75
  C 340.30 612.94 344.34 605.90 344.71 597.70
  Q 344.83 594.96 343.39 586.38
  Q 341.97 577.93 341.66 569.33
  Q 341.51 565.32 337.44 554.15
  Q 329.59 532.57 318.59 512.42
  Q 317.31 510.10 311.24 503.44
  C 303.33 494.75 299.18 485.81 297.25 474.25
  C 296.54 470.00 295.12 465.60 294.68 461.18
  C 293.74 451.89 291.72 442.48 291.33 433.63
  Q 290.35 411.45 290.49 389.25
  C 290.52 383.89 291.31 377.29 291.25 371.25
  C 291.24 369.69 293.27 365.70 293.74 363.27
  Q 296.40 349.58 301.63 336.66
  Q 302.09 335.53 304.00 332.78
  C 305.30 330.91 305.59 328.82 306.89 326.89
  C 308.56 324.40 309.23 321.62 310.80 319.17
  C 312.08 317.16 312.97 314.85 314.18 313.05
  C 323.47 299.17 338.91 285.62 355.46 280.96
  Z"
/>
<path fill="#0f00c6" d="
  M 579.23 308.78
  Q 581.38 309.93 583.70 309.71
  C 587.80 309.33 592.05 310.52 596.22 310.68
  Q 596.46 310.69 596.67 310.81
  Q 600.12 312.74 604.01 313.56
  Q 604.24 313.60 604.42 313.74
  C 608.26 316.70 617.09 317.44 621.21 317.37
  C 626.07 317.29 634.42 318.42 637.42 322.79
  A 0.99 0.99 0.0 0 0 638.31 323.22
  C 641.36 323.01 643.19 324.86 645.90 325.95
  Q 647.17 326.46 650.34 326.79
  C 652.48 327.01 654.47 327.89 656.32 328.24
  Q 660.06 328.96 663.73 330.03
  A 0.95 0.93 45.6 0 0 664.25 330.04
  C 669.95 328.62 678.39 332.10 682.72 335.86
  Q 684.62 337.51 687.01 338.79
  Q 692.29 341.62 696.79 345.59
  A 1.00 1.00 0.0 0 1 696.63 347.20
  L 692.65 349.55
  A 1.04 1.00 86.8 0 0 692.24 350.03
  L 690.17 354.97
  A 0.99 0.95 -4.0 0 1 689.72 355.47
  Q 688.93 355.89 689.64 356.05
  A 0.52 0.51 17.0 0 1 690.01 356.73
  L 689.90 357.02
  A 0.33 0.32 25.3 0 0 690.05 357.42
  C 691.23 358.08 697.32 360.22 697.63 360.66
  Q 697.83 360.94 697.84 361.22
  A 0.64 0.64 0.0 0 1 697.05 361.87
  Q 693.26 360.91 690.18 358.52
  A 1.02 1.02 0.0 0 0 689.31 358.34
  Q 688.49 358.55 688.95 358.24
  A 0.80 0.79 -43.3 0 0 688.99 356.95
  Q 687.59 355.87 685.75 356.75
  Q 685.21 357.01 685.21 357.44
  A 0.51 0.51 0.0 0 1 684.79 357.95
  Q 680.94 358.62 679.14 362.26
  Q 679.03 362.49 678.82 362.64
  C 670.14 368.68 671.24 382.31 677.34 388.71
  C 683.23 394.89 689.08 387.65 695.32 387.07
  C 699.35 386.70 702.38 384.98 706.48 385.70
  C 709.04 386.15 711.70 388.38 714.54 389.32
  A 1.01 1.00 7.9 0 1 715.22 390.21
  Q 715.31 391.58 716.48 392.39
  A 1.00 0.99 -63.8 0 1 716.86 393.52
  Q 715.56 397.64 717.05 401.78
  A 1.00 1.00 0.0 0 1 717.00 402.58
  Q 713.50 409.31 717.18 415.82
  A 1.04 0.98 -59.6 0 1 717.31 416.39
  C 717.07 419.48 718.33 422.39 717.73 425.08
  C 716.77 429.35 713.65 432.06 711.57 434.75
  Q 708.13 439.18 703.30 442.13
  C 701.99 442.93 700.17 443.07 698.91 444.63
  A 1.01 0.98 12.1 0 1 698.37 444.97
  Q 697.37 445.22 696.80 444.45
  A 1.02 1.00 -14.6 0 0 696.10 444.05
  Q 693.72 443.82 693.04 441.63
  A 0.95 0.95 0.0 0 0 692.58 441.06
  L 688.82 438.93
  A 0.48 0.13 28.8 0 0 688.31 438.81
  L 688.25 439.00
  A 0.18 0.14 -66.8 0 1 688.03 439.12
  Q 683.91 436.66 682.94 434.53
  Q 680.74 429.70 677.23 425.73
  A 0.81 0.80 51.0 0 1 677.35 424.55
  Q 678.31 423.85 676.69 422.79
  Q 674.11 421.11 672.52 419.70
  Q 671.86 419.10 671.98 419.98
  L 672.03 420.36
  Q 672.12 421.00 671.67 420.53
  C 669.31 418.07 667.63 416.53 664.17 415.24
  C 662.30 414.55 661.00 413.07 659.65 412.23
  Q 655.60 409.69 651.51 407.22
  A 0.99 0.98 9.4 0 1 651.05 406.58
  L 650.88 405.81
  A 0.99 0.96 9.6 0 0 650.41 405.17
  Q 647.71 403.57 645.02 401.98
  C 640.98 399.57 638.08 395.72 633.76 393.16
  A 0.28 0.27 39.0 0 0 633.43 393.19
  L 633.31 393.31
  Q 633.22 393.40 633.21 393.39
  Q 628.48 390.31 622.81 390.47
  A 0.99 0.95 -24.5 0 1 622.15 390.24
  Q 617.03 386.06 611.11 383.33
  C 602.44 379.34 592.30 382.26 583.38 381.98
  A 1.01 1.00 -14.2 0 1 582.55 381.49
  C 580.43 377.88 577.11 382.04 575.16 377.96
  A 1.02 0.98 89.4 0 0 574.71 377.50
  C 570.76 375.50 566.32 375.02 562.56 375.49
  Q 557.50 376.14 552.54 375.00
  Q 551.10 374.67 552.56 374.48
  L 552.96 374.43
  Q 553.39 374.38 553.01 374.33
  Q 547.32 373.66 542.01 376.07
  A 1.00 0.98 -52.1 0 1 541.43 376.15
  Q 534.86 375.08 528.46 376.47
  A 1.01 1.01 0.0 0 0 527.69 377.24
  Q 526.69 381.95 523.58 385.64
  A 1.03 1.02 65.6 0 0 523.35 386.26
  L 523.22 391.79
  A 0.99 0.97 -62.9 0 0 523.41 392.40
  Q 526.95 397.27 522.59 401.90
  A 1.00 1.00 0.0 0 1 521.06 401.81
  Q 519.04 399.07 518.95 395.80
  A 1.02 1.01 -64.1 0 0 518.76 395.24
  C 516.61 392.30 515.94 401.25 515.98 402.65
  A 0.96 0.96 0.0 0 1 515.79 403.28
  Q 513.75 406.06 513.59 409.41
  Q 513.44 412.66 515.71 414.94
  Q 517.69 416.94 520.51 417.80
  Q 521.88 418.22 520.81 419.16
  Q 519.10 420.67 519.54 423.25
  A 0.96 0.93 -74.5 0 0 519.86 423.84
  Q 523.98 427.45 526.19 432.33
  C 528.33 437.04 527.14 443.93 527.65 447.81
  Q 527.94 449.97 527.47 451.46
  C 526.66 453.99 526.08 455.20 527.87 456.94
  A 1.00 0.99 40.9 0 1 527.97 458.26
  L 526.99 459.54
  A 1.00 1.00 0.0 0 0 526.84 460.48
  C 528.41 464.90 526.15 466.44 526.04 470.40
  C 525.93 474.63 524.69 477.64 525.98 481.96
  A 1.08 1.02 46.8 0 1 525.98 482.53
  Q 524.83 486.50 525.85 490.38
  C 527.35 496.05 525.57 503.82 524.11 509.43
  Q 521.73 518.55 514.09 521.62
  C 509.60 523.42 506.38 512.76 505.29 509.61
  C 504.40 507.06 501.85 505.62 500.61 504.08
  Q 496.66 499.20 494.50 493.35
  C 492.30 487.40 489.80 482.58 488.12 476.91
  C 487.30 474.15 485.24 471.79 485.27 468.28
  A 0.89 0.86 -61.4 0 0 485.13 467.77
  C 483.40 464.83 482.74 459.31 482.18 455.98
  A 0.26 0.26 0.0 0 0 481.97 455.77
  L 481.72 455.72
  A 0.21 0.18 8.2 0 1 481.56 455.54
  C 481.43 450.73 481.63 445.96 480.54 441.12
  Q 479.97 438.59 479.80 435.99
  Q 479.78 435.73 479.63 435.51
  C 477.07 431.61 477.10 425.39 481.62 423.01
  C 486.32 420.53 490.78 424.75 495.46 424.52
  C 499.35 424.33 502.63 423.20 504.13 419.32
  A 1.07 1.04 85.6 0 1 504.55 418.82
  Q 507.85 416.81 510.48 414.00
  C 513.76 410.51 506.84 406.88 504.83 404.05
  Q 502.51 400.80 506.34 400.12
  Q 514.35 398.70 509.97 391.27
  A 1.01 0.99 -58.5 0 1 509.83 390.66
  Q 510.63 383.02 516.87 378.83
  A 1.01 0.95 -7.6 0 0 517.23 378.39
  L 520.20 371.33
  A 1.02 1.01 -41.9 0 0 520.24 370.68
  Q 519.17 366.71 518.44 359.58
  Q 518.24 357.71 516.61 356.27
  A 1.00 1.00 0.0 0 1 516.66 354.73
  Q 517.34 354.19 518.25 354.47
  A 0.96 0.96 0.0 0 0 518.92 354.44
  C 524.71 352.08 530.09 350.87 532.71 343.76
  Q 534.08 340.02 536.01 336.54
  C 537.44 333.95 538.17 331.03 539.75 328.38
  C 541.12 326.07 541.12 324.01 541.94 321.57
  A 1.01 0.99 33.1 0 0 541.72 320.57
  L 541.49 320.32
  A 0.65 0.65 0.0 0 1 541.55 319.38
  Q 542.06 318.97 542.25 318.29
  C 553.90 312.16 566.40 310.64 579.23 308.78
  Z"
/>
<path fill="#0b01a4" d="
  M 724.92 353.16
  Q 730.51 361.30 736.73 368.97
  C 741.33 374.64 744.82 380.78 749.00 387.83
  C 752.49 393.72 756.32 399.43 758.79 405.85
  C 759.36 407.30 759.94 407.85 760.94 408.93
  A 1.08 1.08 0.0 0 1 761.19 409.46
  C 761.81 413.64 764.42 415.11 765.90 418.45
  Q 768.08 423.41 770.60 428.19
  C 772.11 431.05 771.46 433.88 771.35 436.93
  C 771.24 440.04 772.25 444.26 771.24 447.97
  Q 767.74 460.92 755.83 465.37
  C 751.60 466.95 743.71 468.26 738.70 468.59
  Q 720.51 469.80 713.50 469.03
  C 711.11 468.77 699.09 466.94 696.28 463.39
  Q 693.45 458.21 687.76 456.49
  C 683.87 453.05 679.50 449.72 675.90 446.33
  Q 645.45 417.75 638.87 412.37
  Q 633.28 407.80 627.21 407.06
  C 621.28 406.33 617.38 404.89 611.48 404.03
  C 602.47 402.73 592.43 403.52 583.25 403.27
  C 574.55 403.03 569.97 408.52 564.64 414.39
  C 555.48 424.48 548.97 443.02 547.76 456.31
  C 547.23 462.08 546.29 474.21 548.68 479.43
  A 1.04 1.00 41.1 0 1 548.74 480.08
  C 547.65 484.60 549.70 486.25 550.91 489.94
  C 552.51 494.84 554.74 498.78 558.08 502.72
  Q 561.78 506.86 565.41 508.84
  Q 567.00 509.71 570.29 510.40
  A 0.97 0.95 -15.9 0 1 570.77 510.66
  L 572.00 511.84
  A 1.02 0.99 -22.5 0 0 572.70 512.12
  L 590.12 512.09
  A 1.00 0.99 70.7 0 1 590.90 512.47
  Q 592.42 514.36 595.10 513.96
  A 1.00 1.00 0.0 0 1 595.98 514.26
  L 598.84 517.25
  A 1.05 1.01 -20.5 0 0 599.56 517.56
  C 602.67 517.56 604.28 521.76 605.28 524.42
  C 606.37 527.33 605.36 530.53 605.30 533.63
  A 1.03 1.00 66.6 0 1 605.06 534.26
  Q 603.95 535.58 604.46 537.28
  A 1.05 1.02 -48.1 0 1 604.48 537.81
  Q 603.45 542.17 603.35 546.64
  C 603.30 548.71 602.23 549.97 600.84 551.25
  C 597.47 554.36 592.58 552.32 588.71 554.00
  Q 584.78 555.70 582.78 559.06
  C 579.17 565.14 576.87 568.69 572.61 573.45
  Q 568.62 577.91 569.33 584.05
  C 569.86 588.63 569.49 592.60 570.25 596.88
  Q 570.76 599.76 570.47 602.16
  Q 567.87 623.87 570.39 645.58
  A 0.19 0.10 -87.3 0 0 570.46 645.72
  L 570.53 645.77
  A 0.33 0.21 21.8 0 1 570.70 646.00
  Q 570.28 654.85 566.85 663.04
  Q 566.48 663.90 566.50 663.00
  L 566.51 662.61
  Q 566.52 661.92 566.13 662.48
  Q 560.53 670.39 552.78 678.78
  Q 551.85 679.79 552.75 680.23
  A 0.52 0.52 0.0 0 1 552.99 680.89
  L 552.83 681.26
  A 0.80 0.80 0.0 0 1 551.54 681.53
  Q 550.22 680.26 548.89 681.70
  A 1.01 1.01 0.0 0 1 547.54 681.82
  L 546.07 680.68
  Q 545.74 680.43 545.75 680.75
  L 545.76 681.05
  Q 545.78 681.57 545.40 681.21
  Q 539.53 675.52 534.05 673.23
  Q 531.48 672.16 531.19 670.14
  A 1.02 0.99 9.9 0 0 530.64 669.38
  L 515.80 662.10
  A 1.00 0.99 14.5 0 1 515.24 661.16
  Q 515.42 657.08 515.56 652.99
  C 515.62 651.31 513.28 648.67 512.73 646.86
  Q 511.91 644.21 511.58 641.44
  A 0.46 0.13 85.5 0 0 511.44 641.06
  L 511.19 640.98
  A 0.83 0.82 -88.7 0 1 510.67 640.43
  C 509.00 634.34 505.91 628.83 504.43 623.07
  Q 502.69 616.29 500.98 609.49
  Q 500.97 609.45 500.82 609.18
  Q 500.74 609.04 500.96 608.97
  A 0.27 0.27 0.0 0 0 501.12 608.63
  C 498.56 601.45 494.22 588.99 486.52 585.97
  Q 486.12 585.81 485.70 585.88
  A 1.01 1.00 76.7 0 1 484.58 585.18
  Q 484.11 583.64 483.04 582.50
  Q 482.06 577.47 480.37 572.61
  C 479.53 570.21 479.62 567.65 478.67 565.12
  Q 478.58 564.88 478.62 564.62
  Q 479.26 560.65 476.46 557.92
  A 1.03 1.00 23.7 0 1 476.16 557.18
  Q 476.35 549.16 473.47 541.74
  Q 472.02 538.00 471.37 534.10
  C 470.80 530.67 468.92 528.47 468.62 524.80
  C 468.33 521.20 467.48 519.04 466.31 516.02
  C 464.86 512.29 465.05 508.41 463.77 504.49
  Q 463.38 503.32 464.02 498.05
  A 1.01 0.96 -57.6 0 0 463.90 497.44
  C 459.92 490.30 461.83 485.62 461.63 478.18
  Q 461.39 468.90 461.50 459.60
  C 461.56 454.53 463.78 450.62 464.18 445.73
  Q 464.88 437.21 465.02 431.00
  C 465.10 427.53 466.43 424.46 466.68 421.55
  C 467.47 412.57 468.28 400.81 463.29 394.52
  C 458.86 388.95 456.31 381.54 453.02 377.23
  Q 450.89 374.46 441.85 365.46
  C 434.24 357.89 426.36 355.54 415.50 355.99
  Q 409.90 356.23 406.60 358.51
  A 0.98 0.96 28.1 0 1 406.02 358.68
  Q 403.18 358.64 400.63 357.31
  A 1.00 0.99 -39.3 0 0 399.90 357.24
  C 394.13 358.84 388.00 359.99 385.27 364.02
  C 380.94 370.40 381.11 376.93 380.27 384.37
  C 379.61 390.29 378.74 396.69 379.93 402.59
  Q 380.74 406.65 380.90 408.99
  C 381.53 418.27 384.23 425.94 387.57 435.36
  C 389.24 440.08 392.66 448.31 394.56 455.12
  C 395.57 458.74 397.82 462.86 398.73 466.98
  C 399.73 471.52 401.11 475.25 402.17 479.43
  C 404.29 487.82 407.35 495.99 410.15 504.16
  C 411.19 507.20 412.74 509.73 413.42 512.83
  Q 416.63 527.36 421.60 541.39
  C 422.07 542.71 421.90 544.06 422.26 545.25
  Q 428.62 566.19 434.66 587.23
  C 435.22 589.18 435.65 592.87 437.06 595.42
  C 439.20 599.25 439.97 603.55 441.99 607.51
  Q 442.79 609.07 443.39 615.01
  Q 443.41 615.27 443.56 615.49
  C 445.61 618.39 446.07 621.92 447.18 624.67
  C 449.32 630.00 449.39 635.41 451.39 640.52
  Q 456.53 653.67 458.48 664.26
  Q 459.44 669.43 457.32 676.31
  Q 455.20 677.50 452.77 677.45
  A 0.99 0.98 -73.1 0 0 451.90 677.92
  Q 448.52 683.33 443.88 687.65
  C 434.71 696.17 424.06 692.71 413.18 692.64
  Q 405.63 692.58 398.12 693.38
  C 393.83 693.84 389.12 693.71 384.63 694.28
  C 378.30 695.08 372.75 694.85 366.70 695.35
  C 359.49 695.94 352.35 694.55 345.07 694.84
  C 335.69 695.22 331.29 695.28 323.75 694.78
  Q 315.04 694.20 304.75 695.69
  Q 300.64 696.29 281.93 697.07
  Q 279.95 697.16 279.21 696.99
  Q 278.97 696.94 278.72 697.00
  Q 274.51 698.17 270.12 697.95
  A 1.00 0.96 -21.8 0 1 269.53 697.71
  Q 268.30 696.67 266.65 696.51
  A 0.96 0.96 0.0 0 1 266.04 696.22
  Q 263.21 693.40 259.17 692.69
  A 0.97 0.95 -14.2 0 1 258.57 692.34
  Q 257.82 691.41 257.96 693.25
  C 253.59 688.15 249.53 683.27 244.60 678.30
  Q 238.35 672.00 232.50 665.32
  C 230.53 663.06 226.28 660.76 226.33 656.60
  Q 226.60 633.38 226.88 610.23
  Q 231.25 608.51 234.97 609.24
  C 237.44 609.72 239.69 609.21 242.24 609.53
  C 246.62 610.08 268.14 611.84 269.67 609.07
  A 1.02 1.02 0.0 0 1 270.77 608.58
  Q 274.68 609.45 278.25 607.79
  C 282.29 607.98 280.66 613.41 281.23 615.99
  Q 282.22 620.44 284.58 623.79
  A 0.98 0.98 0.0 0 0 285.39 624.22
  Q 307.49 624.42 329.58 623.71
  C 332.68 623.61 334.10 622.29 335.46 619.75
  C 334.61 626.06 328.23 623.82 324.04 624.74
  C 319.91 625.65 315.70 625.07 311.06 625.33
  Q 300.95 625.91 287.90 625.55
  C 284.50 625.46 282.69 623.97 280.56 621.66
  Q 280.40 621.47 280.17 621.39
  L 275.92 619.85
  A 0.97 0.96 -45.4 0 0 275.20 619.86
  Q 270.38 621.82 266.27 620.46
  Q 262.13 619.08 262.10 619.07
  C 256.81 618.01 245.98 617.05 241.81 621.30
  C 238.85 624.31 236.81 628.81 238.36 633.04
  A 1.00 1.00 0.0 0 1 238.39 633.61
  C 237.02 639.45 238.91 644.37 238.01 649.91
  A 0.98 0.97 -56.1 0 0 238.14 650.58
  C 239.99 653.65 239.55 656.93 240.56 659.61
  C 242.41 664.46 244.92 667.94 249.13 670.98
  C 251.56 672.74 253.18 674.85 255.73 676.79
  C 257.24 677.95 257.98 679.41 259.70 680.38
  Q 262.06 681.72 264.11 683.54
  A 0.97 0.94 69.4 0 0 264.62 683.78
  Q 270.89 684.74 276.58 682.03
  A 0.95 0.93 -50.3 0 1 277.24 681.96
  Q 279.53 682.51 281.47 681.15
  A 1.02 1.02 0.0 0 1 281.98 680.97
  L 288.52 680.55
  A 0.51 0.50 -2.4 0 0 289.00 680.04
  L 289.00 679.74
  A 0.41 0.41 0.0 0 1 289.57 679.36
  Q 292.00 680.40 294.67 679.84
  C 298.49 679.04 302.83 679.67 305.76 679.74
  C 316.26 680.00 326.30 683.48 337.47 681.64
  Q 349.95 679.58 362.07 676.01
  A 0.80 0.80 0.0 0 0 362.56 674.89
  L 362.39 674.54
  A 0.41 0.41 0.0 0 1 362.72 673.95
  Q 373.40 673.05 384.06 673.01
  Q 387.75 672.99 391.32 672.06
  C 398.14 670.28 403.13 670.23 409.19 669.32
  C 413.35 668.70 417.60 668.82 421.86 668.28
  C 425.29 667.84 428.04 668.76 431.60 666.30
  Q 436.18 663.14 435.94 669.89
  A 0.99 0.98 82.7 0 1 435.23 670.81
  L 429.05 672.65
  A 1.00 0.99 87.2 0 0 428.35 673.43
  Q 427.92 675.91 428.67 678.28
  A 1.01 1.00 -88.8 0 0 429.27 678.91
  C 434.18 680.77 441.13 680.18 441.67 673.58
  A 0.65 0.65 0.0 0 1 442.14 673.01
  L 442.49 672.92
  A 0.41 0.40 85.3 0 0 442.79 672.55
  L 443.03 669.02
  A 0.99 0.98 0.6 0 1 443.99 668.09
  L 446.02 668.02
  A 1.00 1.00 0.0 0 0 446.98 667.03
  Q 447.01 664.72 445.99 662.79
  C 445.06 661.02 440.91 658.83 441.64 656.02
  Q 441.90 655.00 442.47 655.42
  A 0.64 0.64 0.0 0 0 443.40 655.23
  C 444.49 653.37 443.98 648.84 444.18 646.52
  Q 444.21 646.16 444.06 646.31
  L 443.94 646.44
  Q 443.64 646.75 443.68 646.42
  L 444.49 640.38
  A 1.01 0.95 35.7 0 0 444.37 639.75
  Q 439.50 631.21 439.18 629.28
  C 437.92 621.68 436.39 616.67 430.79 611.79
  A 1.01 0.98 20.5 0 1 430.45 611.07
  C 430.20 605.18 430.77 597.56 429.11 591.99
  C 428.06 588.46 428.95 584.43 426.15 582.33
  A 0.99 0.99 0.0 0 1 425.76 581.40
  L 426.02 579.36
  A 0.95 0.94 34.4 0 0 425.90 578.74
  Q 421.11 570.28 419.55 560.85
  C 418.65 555.41 417.40 549.95 417.21 544.44
  C 417.08 540.58 414.92 538.64 414.14 535.14
  Q 412.06 525.85 408.11 517.23
  C 406.59 513.90 403.57 509.95 402.01 505.77
  C 400.61 502.02 400.77 497.67 400.56 493.54
  A 1.07 0.99 -66.1 0 0 400.38 493.02
  C 397.90 489.43 396.18 485.72 393.86 481.75
  Q 390.02 475.19 389.05 467.60
  C 388.66 464.61 387.46 462.85 385.92 460.49
  A 1.06 0.99 29.9 0 1 385.75 459.93
  C 385.77 459.09 385.86 458.31 385.44 457.54
  C 381.69 450.62 381.58 447.44 381.17 438.32
  C 381.11 436.98 380.00 435.63 379.92 434.16
  Q 379.72 430.29 379.56 426.41
  Q 379.55 426.15 379.41 425.92
  L 378.27 424.09
  A 1.01 1.00 32.4 0 1 378.12 423.44
  C 378.81 417.68 373.52 416.50 372.80 411.26
  Q 372.27 407.41 370.53 403.95
  C 368.10 399.16 368.19 393.95 369.37 388.84
  Q 370.08 385.73 369.85 384.16
  C 369.49 381.75 367.29 378.38 368.96 376.28
  Q 369.12 376.08 369.17 375.82
  Q 370.17 369.79 371.23 368.23
  C 374.30 363.73 376.51 356.74 381.68 354.12
  C 385.86 352.02 389.19 349.22 394.39 349.02
  C 396.85 348.92 399.88 349.71 402.80 349.53
  C 405.45 349.36 407.94 347.62 411.17 347.74
  A 0.97 0.89 -56.9 0 0 411.72 347.60
  Q 414.31 346.06 417.19 345.56
  C 425.71 344.06 432.44 344.77 439.32 350.65
  C 444.36 354.94 447.68 358.90 451.82 363.20
  C 454.49 365.98 458.11 368.98 459.27 372.74
  Q 459.97 375.02 463.15 377.39
  A 1.03 1.03 0.0 0 1 463.52 377.91
  C 464.00 379.61 464.29 380.55 465.57 381.99
  C 468.21 384.96 465.45 395.59 467.95 397.27
  A 0.99 0.99 0.0 0 1 468.39 398.11
  Q 468.23 408.67 468.47 419.20
  C 468.51 420.76 468.09 422.26 468.93 424.04
  A 0.99 0.97 -51.8 0 1 469.00 424.69
  Q 468.21 428.04 468.90 431.51
  A 1.04 1.04 0.0 0 0 469.23 432.08
  Q 469.90 432.64 470.35 433.38
  Q 477.06 444.23 474.72 456.98
  C 473.23 465.05 478.24 473.47 481.23 480.78
  Q 481.78 482.13 481.59 487.76
  C 481.46 491.60 479.56 494.92 478.85 498.86
  Q 478.68 499.80 479.16 499.25
  L 479.34 499.05
  Q 479.46 498.91 479.44 499.08
  C 478.94 503.34 477.66 508.92 478.73 512.99
  C 480.01 517.86 484.68 522.50 480.01 527.32
  A 1.00 0.96 69.4 0 0 479.74 527.95
  Q 479.58 530.05 481.68 530.27
  A 1.01 1.01 0.0 0 1 482.45 530.76
  Q 484.09 533.59 482.21 536.22
  A 0.99 0.99 0.0 0 0 482.18 537.34
  L 482.65 538.08
  A 1.01 1.00 -16.0 0 0 483.47 538.53
  Q 484.66 538.56 484.50 539.68
  A 1.01 1.00 -58.0 0 0 484.65 540.36
  C 486.19 542.76 488.19 544.98 488.89 547.73
  C 489.95 551.88 490.01 556.25 491.67 559.90
  Q 494.19 565.44 498.63 569.56
  C 506.30 576.69 510.00 584.25 509.57 594.98
  C 509.26 602.44 510.81 609.86 511.96 617.20
  Q 512.01 617.46 512.17 617.67
  C 515.10 621.33 514.45 624.74 515.74 628.52
  Q 518.25 635.88 520.19 643.07
  Q 520.76 645.18 522.91 645.58
  C 529.28 646.79 529.10 649.91 530.86 655.04
  A 0.95 0.91 8.6 0 0 531.23 655.52
  L 534.96 658.20
  A 1.02 1.01 -45.8 0 0 536.15 658.18
  Q 541.98 653.77 538.00 648.70
  A 1.05 0.99 -68.3 0 1 537.79 648.17
  Q 537.48 644.74 538.32 641.40
  A 1.06 1.04 -10.1 0 1 538.74 640.81
  C 545.62 636.21 547.96 627.55 553.92 621.84
  Q 554.31 621.47 554.36 622.00
  L 554.40 622.34
  Q 554.52 623.48 555.15 622.52
  Q 561.56 612.86 566.05 600.80
  C 568.24 594.92 568.07 591.32 566.32 585.52
  Q 565.00 581.14 567.59 577.01
  A 0.52 0.50 -70.8 0 1 568.07 576.77
  Q 568.39 576.80 568.58 576.56
  Q 569.69 575.16 570.11 573.59
  Q 571.66 567.72 574.62 562.50
  C 577.75 556.97 578.98 552.33 580.04 546.49
  Q 580.61 543.37 583.77 543.38
  Q 585.95 543.38 588.20 542.64
  Q 590.55 541.88 589.10 543.87
  L 587.07 546.66
  A 1.01 1.00 -56.7 0 0 587.37 548.11
  C 589.74 549.53 595.65 550.52 594.64 545.59
  A 1.01 1.00 -4.7 0 0 593.69 544.79
  Q 590.66 544.69 594.27 543.29
  C 600.76 540.79 599.77 531.73 598.64 526.46
  C 597.91 523.10 595.50 521.05 593.25 518.60
  A 0.99 0.94 74.6 0 0 592.77 518.31
  C 585.03 516.30 575.93 517.98 567.87 517.61
  C 560.94 517.29 552.35 508.63 548.40 503.40
  C 546.81 501.29 544.60 500.14 542.53 498.63
  A 1.12 1.03 -83.2 0 1 542.17 498.13
  C 539.66 490.54 537.53 483.04 537.68 474.81
  C 537.86 465.20 536.77 454.51 539.93 445.35
  A 1.01 0.95 45.3 0 0 539.91 444.66
  C 537.60 438.77 540.94 437.56 542.84 433.10
  Q 545.59 426.59 549.25 418.85
  Q 549.62 418.09 549.90 417.29
  Q 550.56 415.38 551.37 413.70
  C 552.15 412.06 553.81 410.48 554.53 408.34
  A 1.02 1.00 -52.5 0 0 554.42 407.46
  L 553.36 405.89
  A 1.00 1.00 0.0 0 1 553.42 404.69
  Q 555.30 402.46 557.75 401.14
  Q 560.43 399.71 561.84 398.63
  Q 565.81 395.59 569.58 394.93
  Q 574.78 394.02 576.71 391.74
  Q 578.86 389.20 582.19 388.99
  Q 595.76 388.15 608.63 389.41
  C 612.97 389.84 616.58 391.42 620.58 393.03
  C 622.98 393.99 625.91 394.04 628.46 395.49
  C 631.29 397.10 634.12 398.15 636.61 400.19
  Q 639.65 402.68 642.68 405.18
  C 645.11 407.19 647.51 410.31 650.68 412.29
  Q 650.72 412.32 650.77 412.35
  Q 653.55 414.55 655.69 415.68
  Q 655.91 415.80 656.05 416.00
  C 657.67 418.37 659.97 418.37 661.84 419.74
  Q 667.53 423.92 672.46 428.93
  C 678.52 435.08 684.29 440.66 690.30 446.45
  Q 690.97 447.10 692.94 448.18
  Q 693.62 448.55 693.19 448.69
  L 693.00 448.75
  A 0.26 0.10 68.1 0 0 693.00 449.04
  Q 694.39 452.41 698.04 452.99
  A 0.53 0.51 -1.4 0 1 698.46 453.37
  C 698.59 453.90 707.87 456.85 709.03 457.17
  C 713.11 458.32 724.06 463.66 728.20 460.49
  Q 728.29 460.41 728.41 460.36
  L 733.47 458.19
  Q 733.79 458.05 733.35 458.07
  Q 732.40 458.10 733.24 457.53
  Q 736.23 455.51 737.78 452.39
  C 739.33 449.29 737.49 446.36 739.40 443.32
  Q 741.55 439.91 742.92 436.14
  A 1.01 0.99 83.1 0 1 743.29 435.66
  Q 747.06 433.04 749.23 429.02
  A 1.01 1.01 0.0 0 1 750.10 428.49
  Q 751.41 428.49 751.78 429.92
  A 1.07 1.06 -76.4 0 0 752.07 430.40
  L 755.29 433.39
  A 0.99 0.96 -67.3 0 1 755.61 434.20
  Q 755.40 436.98 752.52 437.76
  A 1.01 0.97 6.4 0 0 751.92 438.22
  C 749.35 442.62 742.78 453.89 748.72 455.98
  C 750.52 456.61 752.82 455.89 755.00 456.30
  Q 757.19 456.71 759.03 454.76
  Q 760.52 453.17 762.56 452.32
  Q 764.16 451.65 766.72 447.51
  A 1.08 1.07 -32.2 0 0 766.86 446.91
  Q 766.32 438.94 767.34 431.03
  A 1.00 0.99 28.8 0 0 767.11 430.25
  C 765.53 428.40 765.22 425.15 763.61 422.55
  C 762.19 420.26 759.80 418.49 757.81 416.55
  Q 757.65 416.39 755.10 413.10
  Q 753.00 410.37 748.54 408.46
  Q 748.32 408.37 748.16 408.19
  C 746.45 406.15 745.03 404.39 744.18 401.67
  C 742.90 397.56 740.59 394.15 739.55 390.00
  C 738.62 386.27 735.81 383.35 735.00 380.00
  C 734.36 377.36 734.22 375.81 732.22 373.80
  Q 729.35 370.92 727.15 367.47
  C 726.22 366.01 726.50 364.99 726.46 363.36
  A 0.96 0.95 -62.1 0 0 726.30 362.83
  Q 724.53 360.18 724.45 357.02
  Q 724.45 356.75 724.57 356.52
  Q 725.39 355.02 724.92 353.16
  Z"
/>
<path fill="#474184" fill-opacity="0.996" d="
  M 687.76 456.49
  Q 693.45 458.21 696.28 463.39
  Q 691.15 460.80 687.76 456.49
  Z"
/>
<path fill="#090197" d="
  M 558.08 502.72
  C 563.24 505.31 568.33 507.73 574.30 507.83
  Q 584.31 507.99 594.31 508.83
  C 596.81 509.04 598.12 510.23 600.06 511.57
  A 0.95 0.95 0.0 0 0 600.57 511.74
  C 603.55 511.90 605.25 513.12 606.23 516.09
  C 608.38 522.59 610.77 524.97 610.33 532.91
  C 609.79 542.65 609.72 552.85 606.73 562.22
  A 1.00 0.99 18.6 0 1 605.44 562.85
  C 602.12 561.68 599.21 563.40 596.16 564.45
  C 591.43 566.08 585.57 573.15 582.29 576.56
  Q 580.20 578.73 580.02 581.74
  Q 579.28 593.76 580.44 605.74
  Q 579.76 611.48 578.57 617.10
  C 577.67 621.32 578.65 625.56 578.30 629.94
  C 578.19 631.39 579.05 632.57 578.88 634.18
  C 577.91 643.54 580.50 652.97 578.55 661.80
  C 577.86 664.95 578.82 667.66 578.87 669.98
  C 578.95 674.51 582.23 688.37 580.20 691.54
  C 578.70 693.89 576.72 693.95 573.90 693.62
  C 568.19 692.95 562.68 692.49 556.86 693.90
  C 550.85 695.35 545.95 695.46 540.35 692.48
  Q 536.40 690.38 531.87 689.83
  Q 531.65 689.81 531.47 689.70
  Q 524.99 685.79 517.81 684.45
  Q 513.68 677.18 510.77 669.22
  C 510.25 667.79 508.80 666.96 508.64 665.36
  Q 508.29 661.74 507.89 658.12
  C 507.42 653.85 505.86 650.07 504.80 645.76
  Q 504.27 643.62 502.97 641.06
  C 501.00 637.13 500.54 632.63 499.10 629.08
  C 494.75 618.29 488.29 606.95 486.69 595.34
  C 485.97 590.12 483.75 586.28 483.04 582.50
  Q 484.11 583.64 484.58 585.18
  A 1.01 1.00 76.7 0 0 485.70 585.88
  Q 486.12 585.81 486.52 585.97
  C 494.22 588.99 498.56 601.45 501.12 608.63
  A 0.27 0.27 0.0 0 1 500.96 608.97
  Q 500.74 609.04 500.82 609.18
  Q 500.97 609.45 500.98 609.49
  Q 502.69 616.29 504.43 623.07
  C 505.91 628.83 509.00 634.34 510.67 640.43
  A 0.83 0.82 -88.7 0 0 511.19 640.98
  L 511.44 641.06
  A 0.46 0.13 85.5 0 1 511.58 641.44
  Q 511.91 644.21 512.73 646.86
  C 513.28 648.67 515.62 651.31 515.56 652.99
  Q 515.42 657.08 515.24 661.16
  A 1.00 0.99 14.5 0 0 515.80 662.10
  L 530.64 669.38
  A 1.02 0.99 9.9 0 1 531.19 670.14
  Q 531.48 672.16 534.05 673.23
  Q 539.53 675.52 545.40 681.21
  Q 545.78 681.57 545.76 681.05
  L 545.75 680.75
  Q 545.74 680.43 546.07 680.68
  L 547.54 681.82
  A 1.01 1.01 0.0 0 0 548.89 681.70
  Q 550.22 680.26 551.54 681.53
  A 0.80 0.80 0.0 0 0 552.83 681.26
  L 552.99 680.89
  A 0.52 0.52 0.0 0 0 552.75 680.23
  Q 551.85 679.79 552.78 678.78
  Q 560.53 670.39 566.13 662.48
  Q 566.52 661.92 566.51 662.61
  L 566.50 663.00
  Q 566.48 663.90 566.85 663.04
  Q 570.28 654.85 570.70 646.00
  A 0.33 0.21 21.8 0 0 570.53 645.77
  L 570.46 645.72
  A 0.19 0.10 -87.3 0 1 570.39 645.58
  Q 567.87 623.87 570.47 602.16
  Q 570.76 599.76 570.25 596.88
  C 569.49 592.60 569.86 588.63 569.33 584.05
  Q 568.62 577.91 572.61 573.45
  C 576.87 568.69 579.17 565.14 582.78 559.06
  Q 584.78 555.70 588.71 554.00
  C 592.58 552.32 597.47 554.36 600.84 551.25
  C 602.23 549.97 603.30 548.71 603.35 546.64
  Q 603.45 542.17 604.48 537.81
  A 1.05 1.02 -48.1 0 0 604.46 537.28
  Q 603.95 535.58 605.06 534.26
  A 1.03 1.00 66.6 0 0 605.30 533.63
  C 605.36 530.53 606.37 527.33 605.28 524.42
  C 604.28 521.76 602.67 517.56 599.56 517.56
  A 1.05 1.01 -20.5 0 1 598.84 517.25
  L 595.98 514.26
  A 1.00 1.00 0.0 0 0 595.10 513.96
  Q 592.42 514.36 590.90 512.47
  A 1.00 0.99 70.7 0 0 590.12 512.09
  L 572.70 512.12
  A 1.02 0.99 -22.5 0 1 572.00 511.84
  L 570.77 510.66
  A 0.97 0.95 -15.9 0 0 570.29 510.40
  Q 567.00 509.71 565.41 508.84
  Q 561.78 506.86 558.08 502.72
  Z"
/>
<path fill="#03006b" d="
  M 580.44 605.74
  Q 580.47 612.78 582.26 619.47
  C 583.40 623.71 583.43 627.27 583.96 631.44
  C 584.63 636.68 583.22 640.22 586.54 645.26
  A 1.00 0.98 31.5 0 1 586.70 645.89
  C 585.54 660.29 587.30 676.08 588.46 689.25
  Q 588.39 696.00 586.91 702.62
  L 529.45 703.44
  A 1.04 1.04 0.0 0 1 528.74 703.16
  Q 520.86 695.62 517.81 684.45
  Q 524.99 685.79 531.47 689.70
  Q 531.65 689.81 531.87 689.83
  Q 536.40 690.38 540.35 692.48
  C 545.95 695.46 550.85 695.35 556.86 693.90
  C 562.68 692.49 568.19 692.95 573.90 693.62
  C 576.72 693.95 578.70 693.89 580.20 691.54
  C 582.23 688.37 578.95 674.51 578.87 669.98
  C 578.82 667.66 577.86 664.95 578.55 661.80
  C 580.50 652.97 577.91 643.54 578.88 634.18
  C 579.05 632.57 578.19 631.39 578.30 629.94
  C 578.65 625.56 577.67 621.32 578.57 617.10
  Q 579.76 611.48 580.44 605.74
  Z"
/>
<path fill="#03006b" d="
  M 278.25 607.79
  Q 274.68 609.45 270.77 608.58
  A 1.02 1.02 0.0 0 0 269.67 609.07
  C 268.14 611.84 246.62 610.08 242.24 609.53
  C 239.69 609.21 237.44 609.72 234.97 609.24
  Q 231.25 608.51 226.88 610.23
  Q 228.73 607.80 230.75 607.75
  Q 249.48 607.32 278.25 607.79
  Z"
/>
<path fill="#03006b" d="
  M 457.32 676.31
  Q 456.33 680.53 454.32 684.44
  C 452.92 687.18 450.32 687.57 448.42 689.80
  C 443.75 695.25 436.17 702.11 428.57 702.03
  Q 396.67 701.67 364.75 701.75
  C 339.78 701.83 314.96 702.35 290.06 704.87
  C 286.39 705.24 278.31 705.70 273.83 703.81
  Q 264.92 700.05 257.96 693.25
  Q 257.82 691.41 258.57 692.34
  A 0.97 0.95 -14.2 0 0 259.17 692.69
  Q 263.21 693.40 266.04 696.22
  A 0.96 0.96 0.0 0 0 266.65 696.51
  Q 268.30 696.67 269.53 697.71
  A 1.00 0.96 -21.8 0 0 270.12 697.95
  Q 274.51 698.17 278.72 697.00
  Q 278.97 696.94 279.21 696.99
  Q 279.95 697.16 281.93 697.07
  Q 300.64 696.29 304.75 695.69
  Q 315.04 694.20 323.75 694.78
  C 331.29 695.28 335.69 695.22 345.07 694.84
  C 352.35 694.55 359.49 695.94 366.70 695.35
  C 372.75 694.85 378.30 695.08 384.63 694.28
  C 389.12 693.71 393.83 693.84 398.12 693.38
  Q 405.63 692.58 413.18 692.64
  C 424.06 692.71 434.71 696.17 443.88 687.65
  Q 448.52 683.33 451.90 677.92
  A 0.99 0.98 -73.1 0 1 452.77 677.45
  Q 455.20 677.50 457.32 676.31
  Z"
/>
<path fill="#474184" fill-opacity="0.996" d="
  M 588.46 689.25
  C 590.06 694.26 590.47 698.42 586.91 702.62
  Q 588.39 696.00 588.46 689.25
  Z"
/>
<path fill="#000000" d="
  M 496.66 1126.98
  C 499.24 1140.41 509.76 1145.12 522.64 1142.36
  C 533.27 1140.10 537.73 1126.50 525.30 1122.69
  Q 511.20 1118.38 507.52 1117.47
  C 494.10 1114.14 480.86 1105.19 482.04 1089.57
  C 483.50 1070.05 504.75 1065.60 520.26 1067.04
  C 536.29 1068.53 547.62 1075.73 548.39 1092.87
  A 1.00 1.00 0.0 0 1 547.43 1093.91
  L 533.00 1094.55
  Q 530.44 1094.66 529.79 1092.26
  Q 527.99 1085.64 521.65 1083.22
  C 515.74 1080.97 501.07 1081.10 499.53 1089.35
  C 498.55 1094.61 504.65 1097.73 509.18 1099.09
  C 519.94 1102.33 534.18 1105.12 542.69 1111.45
  C 550.18 1117.03 551.92 1128.79 550.27 1137.56
  C 547.77 1150.88 536.38 1157.16 523.79 1158.06
  C 517.01 1158.55 507.38 1158.91 499.80 1156.28
  C 486.26 1151.59 481.68 1142.64 478.96 1129.18
  A 1.00 1.00 0.0 0 1 479.83 1127.99
  L 495.56 1126.18
  A 1.00 1.00 0.0 0 1 496.66 1126.98
  Z"
/>
<rect fill="#000000" x="359.50" y="1068.24" width="18.24" height="88.72" rx="0.99"/>
<path fill="#000000" d="
  M 412.78 1102.19
  Q 411.32 1099.83 411.30 1102.61
  Q 411.18 1121.05 411.29 1139.48
  C 411.32 1144.00 411.75 1150.50 411.11 1156.05
  A 1.01 1.00 2.9 0 1 410.12 1156.94
  L 396.68 1156.98
  Q 394.50 1156.99 394.50 1154.75
  L 394.50 1069.33
  A 1.00 0.99 -90.0 0 1 395.49 1068.33
  L 411.59 1068.23
  A 1.00 0.99 73.3 0 1 412.45 1068.70
  Q 429.57 1096.64 446.65 1124.59
  Q 446.83 1124.89 447.13 1124.98
  A 0.51 0.51 0.0 0 0 447.79 1124.49
  L 447.73 1069.25
  A 1.00 1.00 0.0 0 1 448.73 1068.25
  L 464.00 1068.26
  A 1.00 1.00 0.0 0 1 465.00 1069.26
  L 465.00 1156.02
  A 1.00 1.00 0.0 0 1 463.99 1157.02
  L 447.21 1156.92
  A 1.00 0.99 -15.6 0 1 446.36 1156.45
  L 412.78 1102.19
  Z"
/>
<path fill="#000000" d="
  M 617.49 1137.00
  L 583.97 1137.00
  A 1.01 1.01 0.0 0 0 583.02 1137.66
  L 576.23 1156.33
  A 1.01 1.01 0.0 0 1 575.28 1156.99
  L 557.99 1157.01
  A 1.01 1.01 0.0 0 1 557.05 1155.63
  L 590.86 1068.91
  A 1.01 1.01 0.0 0 1 591.81 1068.27
  L 609.66 1068.41
  A 1.01 1.01 0.0 0 1 610.59 1069.05
  L 645.32 1155.60
  A 1.01 1.01 0.0 0 1 644.39 1156.99
  L 626.55 1156.98
  A 1.01 1.01 0.0 0 1 625.61 1156.33
  L 618.43 1137.65
  A 1.01 1.01 0.0 0 0 617.49 1137.00
  Z
  M 589.15 1120.84
  A 0.69 0.69 0.0 0 0 589.80 1121.77
  L 611.33 1121.73
  A 0.69 0.69 0.0 0 0 611.98 1120.80
  L 601.16 1091.57
  A 0.69 0.69 0.0 0 0 599.87 1091.57
  L 589.15 1120.84
  Z"
/>
<path fill="#000000" d="
  M 672.44 1101.46
  C 671.94 1101.48 671.75 1101.79 671.75 1102.29
  Q 671.75 1129.18 671.75 1155.99
  A 1.00 1.00 0.0 0 1 670.75 1156.99
  L 655.93 1157.00
  A 1.00 1.00 0.0 0 1 654.93 1155.92
  C 655.11 1153.80 654.79 1151.65 654.80 1150.07
  Q 655.11 1109.75 655.01 1069.43
  A 1.00 0.99 -2.1 0 1 655.95 1068.43
  Q 664.14 1067.93 672.33 1068.60
  A 1.01 1.00 76.0 0 1 673.10 1069.07
  L 707.30 1125.00
  A 0.53 0.53 0.0 0 0 707.73 1125.25
  L 708.04 1125.25
  A 0.21 0.21 0.0 0 0 708.25 1125.04
  L 708.25 1069.26
  A 1.00 1.00 0.0 0 1 709.25 1068.26
  L 724.51 1068.25
  A 1.00 1.00 0.0 0 1 725.51 1069.25
  L 725.48 1154.50
  Q 725.48 1156.87 723.51 1156.89
  L 707.77 1157.05
  A 1.00 0.99 73.3 0 1 706.91 1156.58
  L 672.90 1101.70
  A 0.53 0.52 -17.1 0 0 672.44 1101.46
  Z"
/>
<path fill="#000000" d="
  M 741.26 1083.00
  L 741.24 1068.98
  A 0.76 0.76 0.0 0 1 742.00 1068.22
  L 805.80 1068.33
  A 0.76 0.76 0.0 0 1 806.56 1069.10
  L 806.31 1082.25
  A 0.76 0.76 0.0 0 1 806.14 1082.71
  L 759.21 1140.51
  A 0.76 0.76 0.0 0 0 759.80 1141.75
  L 807.49 1141.75
  A 0.76 0.76 0.0 0 1 808.25 1142.51
  L 808.24 1156.20
  A 0.76 0.76 0.0 0 1 807.48 1156.96
  L 736.75 1157.00
  A 0.76 0.76 0.0 0 1 735.99 1156.24
  L 736.00 1140.92
  A 0.76 0.76 0.0 0 1 736.17 1140.44
  L 781.22 1084.92
  A 0.76 0.76 0.0 0 0 780.63 1083.68
  L 742.02 1083.76
  A 0.76 0.76 0.0 0 1 741.26 1083.00
  Z"
/>
</svg>
